<svg xmlns="http://www.w3.org/2000/svg" version="1.1" xmlns:xlink="http://www.w3.org/1999/xlink" width="512" height="512" x="0" y="0" viewBox="0 0 120 120" style="enable-background:new 0 0 512 512" xml:space="preserve" class=""><g><path fill="#00d566" d="m99.5 52.8-1.9 4.7c-.6 1.6-.6 3.3 0 4.9l1.9 4.7c1.1 2.8.2 6-2.3 7.8L93 77.8c-1.4 1-2.3 2.5-2.7 4.1l-.9 5c-.6 3-3.1 5.2-6.1 5.3l-5.1.2c-1.7.1-3.3.8-4.5 2l-3.5 3.7c-2.1 2.2-5.4 2.7-8 1.2l-4.4-2.6c-1.5-.9-3.2-1.1-4.9-.7l-5 1.2c-2.9.7-6-.7-7.4-3.4l-2.3-4.6c-.8-1.5-2.1-2.7-3.7-3.2l-4.8-1.6c-2.9-1-4.7-3.8-4.4-6.8l.5-5.1c.2-1.7-.3-3.4-1.4-4.7l-3.2-4c-1.9-2.4-1.9-5.7 0-8.1l3.2-4c1.1-1.3 1.6-3 1.4-4.7l-.5-5.1c-.3-3 1.5-5.8 4.4-6.8l4.8-1.6c1.6-.5 2.9-1.7 3.7-3.2l2.3-4.6c1.4-2.7 4.4-4.1 7.4-3.4l5 1.2c1.6.4 3.4.2 4.9-.7l4.4-2.6c2.6-1.5 5.9-1.1 8 1.2l3.5 3.7c1.2 1.2 2.8 2 4.5 2l5.1.2c3 .1 5.6 2.3 6.1 5.3l.9 5c.3 1.7 1.3 3.2 2.7 4.1l4.2 2.9c2.5 2.2 3.5 5.4 2.3 8.2z" opacity="1" data-original="#00d566" class=""></path><g opacity=".15"><path d="m43.4 93.5-2.3-4.6c-.8-1.5-2.1-2.7-3.7-3.2l-4.8-1.6c-2.9-1-4.7-3.8-4.4-6.8l.5-5.1c.2-1.7-.3-3.4-1.4-4.7l-3.2-4c-1.9-2.4-1.9-5.7 0-8.1l3.2-4c1.1-1.3 1.6-3 1.4-4.7l-.5-5.1c-.3-3 1.5-5.8 4.4-6.8l4.8-1.6c1.6-.5 2.9-1.7 3.7-3.2l2.3-4.6c.8-1.6 2.2-2.7 3.7-3.2-2.7-.4-5.4 1-6.6 3.5l-2.3 4.6c-.8 1.5-2.1 2.7-3.7 3.2l-4.8 1.6c-2.9 1-4.7 3.8-4.4 6.8l.5 5.1c.2 1.7-.3 3.4-1.4 4.7l-3.2 4c-1.9 2.4-1.9 5.7 0 8.1l3.2 4c1.1 1.3 1.6 3 1.4 4.7l-.5 5.1c-.3 3 1.5 5.8 4.4 6.8l4.8 1.6c1.6.5 2.9 1.7 3.7 3.2l2.3 4.6c1.4 2.7 4.4 4.1 7.4 3.4l.6-.1c-2.2-.4-4.1-1.6-5.1-3.6zM60.6 22.5l4.4-2.6c.4-.2.8-.4 1.2-.5-1.4-.2-2.9.1-4.1.8l-4.4 2.6c-.4.2-.8.4-1.2.5 1.4.2 2.8 0 4.1-.8zM81 92c-.5 0-1 .1-1.4.2l3.6-.2c.5 0 .9-.1 1.4-.2zM65 98.9l-4.4-2.6c-1.5-.9-3.2-1.1-4.9-.7l-.6.1c.9.1 1.7.4 2.5.8l4.4 2.6c1.7 1 3.6 1.1 5.4.5-.8 0-1.6-.2-2.4-.7z" fill="#000000" opacity="1" data-original="#000000"></path></g><path fill="#00d566" d="m44 53.6 12.5 14.3 25.6-20.6" opacity="1" data-original="#00d566" class=""></path><path fill="#ffffff" d="M53.5 75.3c-1.4 0-2.8-.6-3.8-1.7L37.2 59.3c-1.8-2.1-1.6-5.2.4-7.1 2.1-1.8 5.2-1.6 7.1.4l9.4 10.7L76 45.7c2.1-1.7 5.3-1.4 7 .8s1.4 5.3-.8 7L56.6 74.2c-.9.7-2 1.1-3.1 1.1z" opacity="1" data-original="#ffffff"></path></g></svg>