<svg xmlns="http://www.w3.org/2000/svg" version="1.1" xmlns:xlink="http://www.w3.org/1999/xlink" width="512" height="512" x="0" y="0" viewBox="0 0 512 512" style="enable-background:new 0 0 512 512" xml:space="preserve" class=""><g><g data-name="30-appointment"><path d="M393.265 129.522a12 12 0 1 0 0-24 28 28 0 1 1 14.405-52h31.7a51.991 51.991 0 1 0-46.107 76ZM272.211 129.522a12 12 0 1 0 0-24 28 28 0 1 1 14.4-52h31.7a51.991 51.991 0 1 0-46.107 76Z" fill="#1e88e5" opacity="1" data-original="#000000" class=""></path><path d="M468.927 80.349a12 12 0 0 0-11.662-14.827h-74.548a15.979 15.979 0 0 0 10.548 28 24 24 0 1 1 0 48 63.957 63.957 0 0 1-62.856-76h-68.745a15.978 15.978 0 0 0 10.547 28 24 24 0 1 1 0 48 63.953 63.953 0 0 1-62.855-76H140.61a15.978 15.978 0 0 0 10.547 28 24 24 0 1 1 0 48 63.953 63.953 0 0 1-62.855-76h-7.037A12 12 0 0 0 69.6 74.695l-18.622 76.827h400.7Z" fill="#1e88e5" opacity="1" data-original="#000000" class=""></path><path d="M151.157 129.522a12 12 0 1 0 0-24 28 28 0 1 1 14.405-52h31.7a51.992 51.992 0 1 0-46.108 76ZM469.265 298.541V129.889l-36.727 151.5a119.558 119.558 0 0 1 36.727 17.152ZM401 277.174a120.287 120.287 0 0 1 19.813 1.645l27.951-115.3H48.069L5.6 338.694a12 12 0 0 0 11.662 14.827h271.959A120.2 120.2 0 0 1 401 277.174Zm-59.735-79.652h32a12 12 0 0 1 0 24h-32a12 12 0 0 1 0-24Zm-232 120h-32a12 12 0 1 1 0-24h32a12 12 0 0 1 0 24Zm8-48h-32a12 12 0 1 1 0-24h32a12 12 0 1 1 0 24Zm16-48h-32a12 12 0 1 1 0-24h32a12 12 0 0 1 0 24Zm56 96h-32a12 12 0 0 1 0-24h32a12 12 0 0 1 0 24Zm8-48h-32a12 12 0 1 1 0-24h32a12 12 0 1 1 0 24Zm16-48h-32a12 12 0 0 1 0-24h32a12 12 0 0 1 0 24Zm56 96h-32a12 12 0 0 1 0-24h32a12 12 0 0 1 0 24Zm8-48h-32a12 12 0 1 1 0-24h32a12 12 0 1 1 0 24Zm16-48h-32a12 12 0 0 1 0-24h32a12 12 0 0 1 0 24Zm32 24h32a12 12 0 1 1 0 24h-32a12 12 0 1 1 0-24ZM69.265 365.521v32a12 12 0 0 0 12 12h200.367a120.352 120.352 0 0 1 3.613-44ZM497.265 65.522h-19.229a23.845 23.845 0 0 1 3.229 12v230.527a120.677 120.677 0 0 1 28 37.394V77.522a12 12 0 0 0-12-12Z" fill="#1e88e5" opacity="1" data-original="#000000" class=""></path><path d="M401 289.174a108 108 0 1 0 108 108 108.122 108.122 0 0 0-108-108ZM413 480.3v-11.126a12 12 0 0 0-24 0V480.3a84.171 84.171 0 0 1-71.129-71.129H329a12 12 0 0 0 0-24h-11.129A84.17 84.17 0 0 1 389 314.045v11.129a12 12 0 0 0 24 0v-11.129a84.17 84.17 0 0 1 71.129 71.129H473a12 12 0 0 0 0 24h11.129A84.171 84.171 0 0 1 413 480.3Z" fill="#1e88e5" opacity="1" data-original="#000000" class=""></path><path d="m424.515 356.688-25.884 25.884-24.265-12.132a12 12 0 0 0-10.732 21.467l32 16a12 12 0 0 0 13.851-2.248l32-32a12 12 0 0 0-16.97-16.971Z" fill="#1e88e5" opacity="1" data-original="#000000" class=""></path></g></g></svg>