<svg xmlns="http://www.w3.org/2000/svg" version="1.1" xmlns:xlink="http://www.w3.org/1999/xlink" width="512" height="512" x="0" y="0" viewBox="0 0 512 512" style="enable-background:new 0 0 512 512" xml:space="preserve"><g><g data-name="30-appointment"><g data-name="linear color"><path d="M509.265 77.521a12 12 0 0 0-12-12h-53.414a51.988 51.988 0 0 0-101.173 0h-18.827a51.988 51.988 0 0 0-101.173 0h-18.827a51.988 51.988 0 0 0-101.173 0H81.26a12.087 12.087 0 0 0-11.66 9.171l-64 264a12 12 0 0 0 11.66 14.828h52v44a12 12 0 0 0 12 12h212.41a108 108 0 0 0 215.3-9.37c-.003-1.263.295-322.629.295-322.629zm-24 252.53a109 109 0 0 0-16-16.158V237.52a12 12 0 1 0-24 0v61.493a107.1 107.1 0 0 0-27.374-8.168L466.7 89.521h18.562zM90.7 89.521h11.975a52.079 52.079 0 0 0 50.587 40 12 12 0 1 0 0-24 28.032 28.032 0 0 1-25.293-16h94.706a52.079 52.079 0 0 0 50.587 40 12 12 0 1 0 0-24 28.032 28.032 0 0 1-25.293-16h94.706a52.079 52.079 0 0 0 50.587 40 12 12 0 1 0 0-24 28.032 28.032 0 0 1-25.293-16H442l-13.577 56H77.128zm302.562-40a28.034 28.034 0 0 1 25.292 16h-50.581a28.031 28.031 0 0 1 25.292-16zm-120 0a28.034 28.034 0 0 1 25.292 16h-50.581a28.031 28.031 0 0 1 25.292-16zm-120 0a28.034 28.034 0 0 1 25.292 16h-50.581a28.031 28.031 0 0 1 25.292-16zm-81.961 120h351.3L393.447 289.79a107.886 107.886 0 0 0-76.283 39.73H32.517zm21.956 184h209.121a107.134 107.134 0 0 0-8.708 32H93.26zM413 480.65v-11.129a12 12 0 1 0-24 0v11.129a84.17 84.17 0 0 1-71.129-71.129H329a12 12 0 0 0 0-24h-11.129A84.17 84.17 0 0 1 389 314.393v11.128a12 12 0 0 0 24 0v-11.128a84.17 84.17 0 0 1 71.129 71.128H473a12 12 0 0 0 0 24h11.129A84.17 84.17 0 0 1 413 480.65z" fill="#000000" opacity="1" data-original="#000000"></path><path d="M261.265 213.521h32a12 12 0 0 0 0-24h-32a12 12 0 0 0 0 24zM181.265 213.521h32a12 12 0 0 0 0-24h-32a12 12 0 0 0 0 24zM101.265 213.521h32a12 12 0 0 0 0-24h-32a12 12 0 0 0 0 24zM341.265 213.521h32a12 12 0 0 0 0-24h-32a12 12 0 0 0 0 24zM245.265 261.521h32a12 12 0 1 0 0-24h-32a12 12 0 1 0 0 24zM165.265 261.521h32a12 12 0 0 0 0-24h-32a12 12 0 1 0 0 24zM85.265 261.521h32a12 12 0 0 0 0-24h-32a12 12 0 1 0 0 24zM325.265 261.521h32a12 12 0 0 0 0-24h-32a12 12 0 1 0 0 24zM237.265 309.521h32a12 12 0 0 0 0-24h-32a12 12 0 0 0 0 24zM157.265 309.521h32a12 12 0 0 0 0-24h-32a12 12 0 0 0 0 24zM121.265 297.521a12 12 0 0 0-12-12h-32a12 12 0 1 0 0 24h32a12 12 0 0 0 12-12zM424.515 357.036l-25.884 25.884-24.265-12.132a12 12 0 0 0-10.732 21.467l32 16a12 12 0 0 0 13.851-2.248l32-32a12 12 0 0 0-16.97-16.971z" fill="#000000" opacity="1" data-original="#000000"></path></g></g></g></svg>