<svg xmlns="http://www.w3.org/2000/svg" version="1.1" xmlns:xlink="http://www.w3.org/1999/xlink" width="512" height="512" x="0" y="0" viewBox="0 0 60 60" style="enable-background:new 0 0 512 512" xml:space="preserve" class=""><g><path fill="#c2d1d3" d="M50.97 24.04C55.88 27.67 59 33.11 59 39.2c0 3.88-1.27 7.51-3.46 10.56l1.36 6.83c.14.72-.49 1.35-1.21 1.21l-7.73-1.55C44.6 58 40.69 59 36.5 59c-11.17 0-20.43-7.16-22.19-16.55z" opacity="1" data-original="#c2d1d3"></path><path fill="#30a8f2" d="M51 23c0 12.15-11.19 22-25 22-4.65 0-9-1.11-12.73-3.06l-8.588 1.723c-.8.16-1.506-.545-1.346-1.345L4.85 34.73C2.41 31.34 1 27.31 1 23 1 10.85 12.19 1 26 1s25 9.85 25 22z" opacity="1" data-original="#30a8f2" class=""></path><g fill="#fff"><circle cx="13" cy="23" r="4" fill="#ffffff" opacity="1" data-original="#ffffff" class=""></circle><circle cx="26" cy="23" r="4" fill="#ffffff" opacity="1" data-original="#ffffff" class=""></circle><circle cx="39" cy="23" r="4" fill="#ffffff" opacity="1" data-original="#ffffff" class=""></circle></g></g></svg>