<svg xmlns="http://www.w3.org/2000/svg" version="1.1" xmlns:xlink="http://www.w3.org/1999/xlink" width="512" height="512" x="0" y="0" viewBox="0 0 512 512" style="enable-background:new 0 0 512 512" xml:space="preserve" class=""><g><path fill="#cbd3d8" d="M363.276 73.163H107.517c-23.657 0-42.835 19.178-42.835 42.835v353.167c0 23.657 19.178 42.835 42.835 42.835h113.781l72.298-43.553 69.447 33.702c23.657 0 43.068-9.327 43.068-32.984V115.998c0-23.657-19.178-42.835-42.835-42.835z" opacity="1" data-original="#cbd3d8"></path><path fill="#f2f6fc" d="M226.676.932 224.363 0h-82.389c-23.657 0-67.223 19.178-67.223 42.835v353.167c0 23.657 43.566 42.835 67.223 42.835h159.492c23.657 0 42.835-19.178 42.835-42.835V116.447A214.922 214.922 0 0 0 226.676.932z" opacity="1" data-original="#f2f6fc" class=""></path><path fill="#dce1eb" d="M99.139 396.002V42.835C99.139 19.178 118.316 0 141.973 0H45.706C22.049 0 2.871 19.178 2.871 42.835v353.167c0 23.657 19.178 42.835 42.835 42.835h96.268c-23.658 0-42.835-19.178-42.835-42.835z" opacity="1" data-original="#dce1eb"></path><path fill="#8dd470" d="M105.889 209.163H64.682c-11.379 0-20.604-9.225-20.604-20.604v-41.207c0-11.379 9.225-20.604 20.604-20.604h41.207c11.379 0 20.604 9.225 20.604 20.604v41.207c0 11.38-9.225 20.604-20.604 20.604zM105.889 332.785H64.682c-11.379 0-20.604-9.225-20.604-20.604v-41.207c0-11.379 9.225-20.604 20.604-20.604h41.207c11.379 0 20.604 9.225 20.604 20.604v41.207c0 11.38-9.225 20.604-20.604 20.604z" opacity="1" data-original="#8dd470"></path><path fill="#dce1eb" d="M344.3 116.447c-11.04-8.349-24.572-12.99-38.637-12.99h-14.156c-30.649 0-55.495-24.846-55.495-55.495V34.56A57.165 57.165 0 0 0 224.362 0C287.894 3.431 339.041 53.418 344.3 116.447z" opacity="1" data-original="#dce1eb"></path><path fill="#515181" d="M261.886 244.153v60.401h41.207v-60.401c0-11.379 9.225-20.604 20.604-20.604h41.207c11.379 0 20.604 9.225 20.604 20.604v60.401h41.207v-60.401c0-34.137-27.674-61.811-61.811-61.811h-41.207c-34.138 0-61.811 27.674-61.811 61.811z" opacity="1" data-original="#515181" class=""></path><path fill="#41416b" d="M303.093 202.946c0-11.379 9.225-20.604 20.604-20.604-34.137 0-61.811 27.674-61.811 61.811v60.401h41.207v-60.401c0-11.379 9.225-20.604 20.604-20.604-11.379 0-20.604-9.224-20.604-20.603z" opacity="1" data-original="#41416b"></path><path fill="#cb5935" d="M313.395 315.83v156.372c0 21.98 38.422 39.798 60.401 39.798h19.887l25.755-20.239L445.192 512h24.139c21.98 0 39.798-17.818 39.798-39.798V315.83z" opacity="1" data-original="#cb5935"></path><path fill="#b24e2f" d="M333.998 472.202V315.83H179.471v156.372c0 21.98 17.818 39.798 39.798 39.798h24.139l25.755-20.239L294.917 512h78.879c-21.98 0-39.798-17.818-39.798-39.798z" opacity="1" data-original="#b24e2f"></path><path fill="#e37858" d="M469.331 264.757h-177.95c-21.98 0-60.401 17.818-60.401 39.798v18.572c0 48.415 43.049 67.656 43.049 67.656h167.443c37.365 0 67.656-30.291 67.656-67.656v-18.572c.001-21.98-17.817-39.798-39.797-39.798z" opacity="1" data-original="#e37858"></path><path fill="#cb5935" d="M274.029 373.449c-13.777-12.385-22.446-30.339-22.446-50.323v-18.572c0-21.98 17.818-39.798 39.798-39.798h-72.113c-21.98 0-39.798 17.818-39.798 39.798v18.572c0 37.365 30.291 67.656 67.656 67.656h26.902v-17.333z" opacity="1" data-original="#cb5935"></path><path fill="#41416b" d="M294.917 512h-51.509V372.926c0-14.224 11.531-25.755 25.755-25.755 14.224 0 25.754 11.531 25.754 25.755z" opacity="1" data-original="#41416b"></path><path fill="#515181" d="M393.683 512h51.509V372.926c0-14.224-11.531-25.755-25.754-25.755-14.224 0-25.755 11.531-25.755 25.755z" opacity="1" data-original="#515181" class=""></path><path fill="#ffffff" d="M79.348 186.151a7.477 7.477 0 0 1-5.303-2.196l-9.515-9.515a7.5 7.5 0 0 1 0-10.606 7.5 7.5 0 0 1 10.606-.001l4.212 4.212 16.087-16.088a7.501 7.501 0 0 1 10.606 10.607L84.65 183.955a7.473 7.473 0 0 1-5.302 2.196zM79.348 309.773a7.497 7.497 0 0 1-5.303-2.197l-9.515-9.516a7.5 7.5 0 1 1 10.606-10.605l4.212 4.212 16.087-16.088a7.501 7.501 0 0 1 10.606 10.607L84.65 307.577a7.496 7.496 0 0 1-5.302 2.196z" opacity="1" data-original="#ffffff"></path><path fill="#495560" d="M279.971 317.819a7.5 7.5 0 0 1-7.5-7.5v-12.361c0-4.143 3.358-7.5 7.5-7.5s7.5 3.357 7.5 7.5v12.361a7.5 7.5 0 0 1-7.5 7.5zM408.629 317.819a7.5 7.5 0 0 1-7.5-7.5v-12.361c0-4.143 3.358-7.5 7.5-7.5s7.5 3.357 7.5 7.5v12.361a7.5 7.5 0 0 1-7.5 7.5zM344.3 325.178a29.996 29.996 0 0 1-22.615-10.299 7.5 7.5 0 0 1 11.309-9.855c2.854 3.275 6.975 5.154 11.306 5.154s8.451-1.879 11.306-5.154a7.501 7.501 0 0 1 11.309 9.855 29.996 29.996 0 0 1-22.615 10.299z" opacity="1" data-original="#495560"></path><path fill="#b5babc" d="M303.093 154.853H167.7c-4.142 0-7.5-3.357-7.5-7.5s3.358-7.5 7.5-7.5h135.393c4.142 0 7.5 3.357 7.5 7.5s-3.358 7.5-7.5 7.5zM235.396 196.06H167.7c-4.142 0-7.5-3.357-7.5-7.5s3.358-7.5 7.5-7.5h67.697a7.5 7.5 0 1 1-.001 15zM158.868 48.707H44.078c-4.142 0-7.5-3.357-7.5-7.5s3.358-7.5 7.5-7.5h114.79c4.142 0 7.5 3.357 7.5 7.5s-3.358 7.5-7.5 7.5zM122.077 89.914H44.078c-4.142 0-7.5-3.357-7.5-7.5s3.358-7.5 7.5-7.5h77.999c4.142 0 7.5 3.357 7.5 7.5s-3.358 7.5-7.5 7.5z" opacity="1" data-original="#b5babc"></path></g></svg>