<svg xmlns="http://www.w3.org/2000/svg" version="1.1" xmlns:xlink="http://www.w3.org/1999/xlink" width="512" height="512" x="0" y="0" viewBox="0 0 64 64" style="enable-background:new 0 0 512 512" xml:space="preserve" class=""><g><path d="M56.78 11.08c-6.34-6.26-16.64-6.26-22.97-.01L32 12.86l-1.81-1.79c-6.33-6.25-16.63-6.25-22.97.01C1.78 16.54.89 25.04 4.78 34.41 9.41 45.58 21.14 57.62 32 57.62s22.58-12.05 27.21-23.21c3.9-9.37 3.01-17.87-2.43-23.33zm-.57 22.09C51.44 44.66 40.35 54.38 32 54.38c-8.36 0-19.45-9.71-24.22-21.2C5.8 28.42 3.4 19.52 9.51 13.4c2.54-2.51 5.87-3.76 9.2-3.76s6.66 1.25 9.2 3.76l2.95 2.92c.63.62 1.65.62 2.28 0l2.95-2.92c5.07-5.01 13.32-5.01 18.39-.01 6.11 6.12 3.71 15.02 1.73 19.78z" fill="#000000" opacity="1" data-original="#000000" class=""></path></g></svg>