<svg xmlns="http://www.w3.org/2000/svg" version="1.1" xmlns:xlink="http://www.w3.org/1999/xlink" width="512" height="512" x="0" y="0" viewBox="0 0 512 512" style="enable-background:new 0 0 512 512" xml:space="preserve" class=""><g><path fill="#ffdd40" d="M17.208 203.075s51.336 120.15 236.129 120.15 236.985-120.17 236.985-120.17C462.197 98.756 366.955 21.996 253.768 21.996c-113.194 0-208.442 76.77-236.56 181.079z" opacity="1" data-original="#ffdd40" class=""></path><path fill="#d1714b" d="M255.067 33.15c-1.521.712-32.554 15.743-7.885 46.735.404.507.794 1.041 1.174 1.598 4.835.9 9.844.588 14.548-.977 9.195-3.058 23.614-6.12 35.369-.831 13.835 6.225 12.25 24.843 11.486 35.382-.266 3.664.605 7.339 2.586 10.446 1.169 1.834 2.097 6.772 2.833 8.693.915 2.388 3.561 4.854 3.964 7.359 2.124-1.029 5.159-2.15 7.755-1.783.318-11.017 1.335-25.888 1.335-25.888 10.884-53.309-32.209-79.775-73.165-80.734z" opacity="1" data-original="#d1714b"></path><path fill="#bc6242" d="M239.938 33.979c-41.315 5.629-45.242 29.054-45.26 37.648-.004 1.802-1.002 3.473-2.623 4.261-21.491 10.455-9.904 63.834-9.904 63.834 2.158.144 4.417 1.018 6.102 1.834a36.95 36.95 0 0 1 2.037-7.539c.725-1.862 3.626-6.736 4.759-8.513a16.949 16.949 0 0 0 2.593-10.357c-.773-10.512-2.396-29.229 11.479-35.472 11.754-5.289 26.174-2.226 35.369.831a29.155 29.155 0 0 0 8.163 1.448 27.314 27.314 0 0 0-1.473-2.069c-23.665-29.732 3.937-44.777 7.564-46.579-6.348-.384-12.686-.161-18.806.673z" opacity="1" data-original="#bc6242"></path><path fill="#ffaa7b" d="M290.899 234.068a86.545 86.545 0 0 1-8.748 7.824 46.397 46.397 0 0 1-28.454 9.728c-1.476 0-2.944-.078-4.403-.217-.401 8.718-2.084 22.405-8.33 31.578-.058.085-.132.17-.196.254h28.214a7.484 7.484 0 0 1 1.551-2.445l26.456-27.659a6.405 6.405 0 0 1 1.431-1.116c-4.629-5.919-6.664-13.427-7.521-17.947z" opacity="1" data-original="#ffaa7b"></path><path fill="#fc9460" d="M242.963 282.981c6.211-9.122 7.91-22.707 8.323-31.432-9.46-.49-18.56-3.846-26.044-9.658a86.608 86.608 0 0 1-8.546-7.62c-.875 4.518-2.904 11.844-7.42 17.664a6.407 6.407 0 0 1 1.568 1.196L237.3 280.79a7.514 7.514 0 0 1 1.552 2.445h3.914c.065-.084.139-.169.197-.254z" opacity="1" data-original="#fc9460"></path><path fill="#49b1f7" d="M268.98 288.797h-30.126c-1.956 5.339-6.174 13.946-14.298 19.947 7.188 13.15 14.436 24.503 20.333 33.132a74.685 74.685 0 0 1 8.206 15.776 74.727 74.727 0 0 1 8.205-15.776c6.03-8.824 13.473-20.499 20.82-34.027-7.371-5.937-11.279-13.973-13.14-19.052z" opacity="1" data-original="#49b1f7"></path><path fill="#4f71b6" d="M268.468 288.569a7.548 7.548 0 0 1 .413-6.075h-29.928a7.547 7.547 0 0 1 .413 6.075 49.881 49.881 0 0 1-4.196 8.797l8.934 12.03h19.188l9.175-12.355a49.883 49.883 0 0 1-3.999-8.472z" opacity="1" data-original="#4f71b6" class=""></path><path fill="#3c58a0" d="M132.028 34.504C113.755 21.306 99.141 15.03 84.334 15.677c-2.6 3.12-9.55 12.536-8.822 23.257.424 6.25 3.39 11.827 8.822 16.596a10.376 10.376 0 0 0-.845 1.577c11.969-.62 24.155 2.58 33.848 9.611 4.02 2.916 7.227 7.524 9.146 13.126l2.494 9.694 5.305 11.913c1.676-1.137 5.167-2.107 7.658-1.143l.002-.004 2.399-37.284c1.011-10.746-3.668-22.271-12.313-28.516z" opacity="1" data-original="#3c58a0"></path><path fill="#2a428c" d="M55.465 66.719c8.593-6.233 19.134-9.449 29.744-9.673a9.073 9.073 0 0 1 1.193-1.734c-21.211-17.155-.065-39.651-.029-39.69-14.078.01-28.172 6.296-45.598 18.883-8.645 6.244-13.325 17.769-12.313 28.516l2.399 37.284.002.004c2.491-.964 5.982.006 7.657 1.143l5.304-11.913 2.493-9.693c1.921-5.603 5.128-10.211 9.148-13.127z" opacity="1" data-original="#2a428c"></path><path fill="#6289cc" d="M126.483 78.133c-1.919-5.602-5.125-10.21-9.146-13.127-9.515-6.902-21.433-10.118-33.19-9.647.063.056.123.114.187.17-1.454 2.215-2.551 5.77-.282 9.208a54.388 54.388 0 0 0-3.256 1.867c12.809-.989 26.11 1.417 36.541 7.236 4.02 2.243 7.227 5.788 9.146 10.097l3.536 7.941z" opacity="1" data-original="#6289cc"></path><path fill="#4f71b6" d="M55.465 73.842c8.288-4.624 18.399-7.097 28.638-7.419 1.402-.77 2.299-1.179 2.299-1.179-4.816-4.815-.002-9.93 0-9.932-11.009 0-22.021 3.229-30.936 9.695-4.02 2.916-7.227 7.525-9.146 13.127L42.783 91.88l3.535-7.94c1.92-4.31 5.127-7.855 9.147-10.098z" opacity="1" data-original="#4f71b6" class=""></path><path fill="#e58b6c" d="M142.42 99.399c-2.34-2.145-7.003-1.058-9.018.256.442 2.75.467 5.563.085 8.341l-2.379 17.325c0 1.397-.044 2.767-.125 4.113 5.8 1.749 8.682-3.458 9.167-7.031a26.674 26.674 0 0 1 1.024-4.534c1.543-4.82 7.109-13.096 1.246-18.47z" opacity="1" data-original="#e58b6c"></path><path fill="#d1714b" d="M30.325 99.399c2.341-2.145 7.003-1.058 9.018.256a28.327 28.327 0 0 0-.085 8.341l2.379 17.325c0 1.397.044 2.767.125 4.113-5.8 1.749-8.682-3.458-9.167-7.031a26.674 26.674 0 0 0-1.024-4.534c-1.544-4.82-7.11-13.096-1.246-18.47z" opacity="1" data-original="#d1714b"></path><path fill="#f2a08b" d="m133.956 99.58-5.631-12.645-1.842-4.137c-1.919-4.309-5.125-7.854-9.146-10.097-9.844-5.492-22.244-7.943-34.375-7.37-5.57 3.107-17.377 10.991-17.377 22.01 0 .604-.006 1.321-.012 2.141-.084 11.095.48 21.208 1.67 30.359 15.08-5.897 34.614-4.491 47.563 4.226.14.094.28.189.42.286 4.553 3.124 9.951 6.209 15.974 8.955.306-2.566.478-5.224.478-7.986l2.379-17.325a28.297 28.297 0 0 0-.101-8.417z" opacity="1" data-original="#f2a08b"></path><path fill="#e58b6c" d="M59.087 124.065c2.878-1.937 6.082-3.512 9.489-4.728-1.859-14.419-1.491-27.007-1.491-31.998 0-13.308 19.316-22.096 19.316-22.096l-.001-.001c-11.015.001-22.028 2.488-30.935 7.458-4.021 2.243-7.227 5.788-9.146 10.098l-1.841 4.135v.001l-5.713 12.829a28.318 28.318 0 0 0-.077 8.228l2.379 17.328c0 2.938.191 5.76.536 8.475 6.463-2.866 12.238-6.134 17.065-9.445l.419-.284zM120.343 183.908c-4.436-4.436-6.265-10.954-6.986-14.715a63.012 63.012 0 0 1-6.289 5.617 33.74 33.74 0 0 1-20.316 7.067c-.536 9.079-3.094 28.659-14.882 43.307a17.592 17.592 0 0 0-1.372-.086c8.413 11.15 15.756 17.522 15.864 17.675.06-.085 25.961-23.098 36.209-56.68.003-.011.01-.019.013-.03a76.358 76.358 0 0 1-2.241-2.155z" opacity="1" data-original="#e58b6c"></path><path fill="#d1714b" d="M86.372 181.885a33.745 33.745 0 0 1-20.695-7.075 63.012 63.012 0 0 1-6.289-5.617c-.721 3.761-2.549 10.279-6.986 14.715a76.327 76.327 0 0 1-2.242 2.155c.003.011.01.019.014.03 5.152 16.884 13.919 30.774 21.536 40.584.494.051.79.107.79.107 12.628-15.182 15.249-35.634 15.769-44.959-.632.035-1.263.06-1.897.06z" opacity="1" data-original="#d1714b"></path><path fill="#3c58a0" d="M195.739 229.099a25.842 25.842 0 0 0-17.799-18.207c-15.32-4.442-30.814-11.159-39.775-15.312-12.325 35.84-37.675 58.056-38.14 58.7l.014.011-10.382 10.617a3.324 3.324 0 0 1-4.471.234c-.728-.886-14.332-10.4-28.17-28.304-.038.337-.081.67-.103 1.021-5.481-.117-23.858.512-37.871 13.444-4.242 3.916-7.658 8.595-10.262 13.993-.004.568-.014 1.133-.014 1.702 0 70.078 29.435 133.269 76.601 177.924 3.628-54.889 13.577-99.763 20.084-124.39 3.187-12.063 12.486-21.556 24.47-25.031 19.046-5.522 38.289-13.603 50.909-19.322l22.949-10.394c-2.718-15.254-5.688-27.786-8.04-36.686z" opacity="1" data-original="#3c58a0"></path><path fill="#2a428c" d="M58.365 239.425c0-.294.015-.568.025-.849-8.746-10.988-17.753-25.331-23.811-42.996a354.127 354.127 0 0 1-17.37 7.495c-5.494 20.381-8.442 41.806-8.442 63.923 0 .662.021 1.319.026 1.98 13.141-32.466 49.572-29.553 49.572-29.553z" opacity="1" data-original="#2a428c"></path><path fill="#4f71b6" d="M138.177 191.195c-6.217-2.811-10.165-4.821-10.165-4.821s-.907-.361-2.65-1.581c-1.212-.848-2.905-.28-3.337 1.135-2.945 9.652-12.346 34.358-36.226 56.598a137.501 137.501 0 0 0 8.288 7.294l6.186 5.012c24.283-23.209 34.927-48.272 39.075-60.981a2.173 2.173 0 0 0-1.171-2.656z" opacity="1" data-original="#4f71b6" class=""></path><path fill="#e9efff" d="M101.854 179.259a33.554 33.554 0 0 0 5.214-3.308c10.234-7.947 22.092-22.565 24.26-43.726-6.075-2.761-11.515-5.869-16.101-9.015-.14-.096-.28-.192-.42-.286-12.988-8.743-32.601-10.133-47.7-4.174 3.961 32.059 15.593 52.337 34.747 60.509z" opacity="1" data-original="#e9efff" class=""></path><path fill="#d3dcfb" d="M65.677 175.951c11.02 8.558 26.098 9.303 37.846 2.372-24.074-9.619-32.306-37.334-35.082-60.076-3.357 1.209-6.515 2.766-9.354 4.677-.14.094-.28.19-.42.286-4.859 3.333-10.677 6.623-17.192 9.503 2.299 20.896 14.047 35.352 24.202 43.238z" opacity="1" data-original="#d3dcfb"></path><path fill="#6e5d76" d="M418.915 64.18c-.812 1.041-2.565 3.66-2.322 6.595.161 1.952 1.136 3.642 2.897 5.022 3.686 2.889 26.729 44.741 41.335 72.196.435.956 5.54 11.674 16.707 14.904 7.704 2.231 16.322.313 25.624-5.671a23.21 23.21 0 0 0 .078-1.835c0-6.765-2.932-12.857-7.617-17.124-5.762-5.248-7.106-12.78-5.042-18.935 7.683-22.913-9.533-31.223-20.604-59.926-9.627-24.959-36.863-23.381-45.675-22.162a20.276 20.276 0 0 1-3.134.18c-.751.013-1.5-.027-2.248-.095V64.18z" opacity="1" data-original="#6e5d76" class=""></path><path fill="#56415e" d="M462.173 147.332s-36.48-68.58-41.757-72.715c-5.277-4.136 0-9.898 0-9.898V37.41a19.654 19.654 0 0 1-2.386-.166c-8.811-1.219-36.048-2.797-45.675 22.162-11.072 28.703-28.287 37.013-20.604 59.926 2.064 6.156.72 13.687-5.042 18.935-4.685 4.267-7.617 10.359-7.617 17.124 0 4.422 1.253 8.556 3.429 12.081 2.729 4.42 3.988 9.585 3.412 14.721-.744 6.633.445 14.126 6.026 21.288h69.203l69.159-.426c5.581-7.161 6.815-14.228 6.071-20.861-.576-5.136.683-10.301 3.412-14.721a22.915 22.915 0 0 0 3.429-12.081c-28.895 19.327-41.06-8.06-41.06-8.06z" opacity="1" data-original="#56415e"></path><path fill="#ffaa7b" d="m410.462 240.761-.174.367.035.404c.013.148.044.497.093 1.015 3.56.352 7.144.549 10.747.549 12.788 0 25.373-2.246 37.225-6.513l8.511-45.184a177.815 177.815 0 0 1-6.551-4.077c-6.308-4.131-10.737-10.615-12.178-18.016l-.022-.114a63.012 63.012 0 0 1-6.289 5.617 33.748 33.748 0 0 1-22.113 7.045c.014 12.077-.889 41.201-9.284 58.907z" opacity="1" data-original="#ffaa7b"></path><path fill="#fc9460" d="M411.818 241.403c8.557-18.048 9.46-47.328 9.436-59.52l-.09.002a33.745 33.745 0 0 1-20.695-7.075 62.9 62.9 0 0 1-6.289-5.617l-.022.114c-1.441 7.401-5.87 13.885-12.178 18.016l-.001.001a179.997 179.997 0 0 1-6.55 4.077l8.511 45.184a110.095 110.095 0 0 0 28.001 6.117c-.084-.839-.123-1.299-.123-1.299z" opacity="1" data-original="#fc9460"></path><path fill="#49b1f7" d="M410.323 241.532c.218 2.524 5.528 61.984 22.368 75.099 2.282 1.777 4.701 2.672 7.213 2.672l.111-.001c.163 2.076.611 5.968 1.814 10.549l16.935-95.267a101.17 101.17 0 0 1-37.602 7.257c-3.645 0-7.27-.205-10.865-.594z" opacity="1" data-original="#49b1f7"></path><path fill="#1e9ef4" d="M421.163 420.815h4.496l16.848-94.779c-.992-4.897-1.084-8.358-1.084-8.358-22.706 3.697-29.606-76.275-29.606-76.275a101.256 101.256 0 0 1-28.256-6.82l10.804 70.43a35.406 35.406 0 0 1 7.819 14.518c5.568 21.074 13.659 56.97 18.152 101.283h.827z" opacity="1" data-original="#1e9ef4" class=""></path><path fill="#73c3f9" d="M455.063 352.316c6.723 5.591 15.301 8.063 25.539 7.402 11.711-28.598 18.168-59.903 18.168-92.72 0-22.124-2.95-43.556-8.448-63.943a174.068 174.068 0 0 1-24.749-12.453l-25.147 132.327c1.065 7.372 4.374 20.854 14.637 29.387z" opacity="1" data-original="#73c3f9" class=""></path><path fill="#49b1f7" d="M441.424 317.678 420.84 425.994a659.514 659.514 0 0 1 1.485 18.761c25.395-24.088 45.626-53.559 58.886-86.58-38.659 3.042-39.787-40.497-39.787-40.497zM308.462 259.178l15.415 10.602a15.314 15.314 0 0 1 4.77 5.326c12.616 5.723 31.935 13.848 51.069 19.395a35.562 35.562 0 0 1 19.194 13.727L376.754 190.6c-8.54 5.181-17.498 9.645-26.808 13.285-6.414 2.508-13.423 4.999-20.394 7.018a25.778 25.778 0 0 0-17.753 18.188c-1.989 7.527-4.421 17.662-6.768 29.838 1.058-.506 2.355-.49 3.431.249z" opacity="1" data-original="#49b1f7"></path><path fill="#d3dcfb" d="M412.987 9.641c-.049 3.417 1.688 6.636 5.166 9.587-.552.653-1.141 1.528-1.505 2.567h43.676C451.879 8.687 437.167 0 420.415 0c-.824 0-1.638.038-2.452.079-1.927 1.771-4.913 5.209-4.976 9.562z" opacity="1" data-original="#d3dcfb"></path><path fill="#bec8f7" d="M420.415 0c-16.751 0-31.464 8.687-39.909 21.795h37.754c.753-1.638 2.155-2.692 2.155-2.692-13.339-9.838 0-19.103 0-19.103z" opacity="1" data-original="#bec8f7"></path><path fill="#fc9460" d="M374.658 125.553s-2.906-18.394.441-29.348c-3.037-2.025-8.905-3.013-11.545-.433-5.404 5.283-1.444 13.26.45 18.299a19.123 19.123 0 0 1 1.127 4.68c.369 3.407 2.216 8.392 9.874 8.275-.115-.491-.234-.974-.347-1.473z" opacity="1" data-original="#fc9460"></path><path fill="#ffaa7b" d="M479.536 95.772c-2.639-2.58-8.507-1.592-11.545.433 3.348 10.954.441 29.348.441 29.348-.113.499-.232.982-.347 1.473 7.658.117 9.505-4.868 9.874-8.275.17-1.568.545-3.133 1.127-4.68 1.894-5.039 5.853-13.016.45-18.299z" opacity="1" data-original="#ffaa7b"></path><path fill="#ffc7ab" d="M465.472 90.506c-1.103-1.243-1.71-2.697-1.755-4.201-.171-5.728-1.617-19.747-11.333-26.216-6.891-4.589-16.579-4.541-28.795.143a5.694 5.694 0 0 1-4.088 0c-.783-.3-1.555-.58-2.318-.842-9.769 6.839-11.261 20.494-11.441 26.171-.049 1.537-.71 3.021-1.914 4.29-6.629 7.001-5.177 27.456-3.63 35.877 3.425 14.169 8.387 26.524 14.745 36.722 4.89 7.844 11.697 14.355 19.94 19.178 8.512-4.82 15.494-11.654 20.39-20.033 5.834-9.983 10.387-22.082 13.537-35.983 1.363-8.668 2.815-28.172-3.338-35.106z" opacity="1" data-original="#ffc7ab"></path><path fill="#ffaa7b" d="M415.38 161.595c-6.226-9.986-11.084-22.084-14.438-35.958-1.514-8.246-2.936-28.275 3.555-35.131 1.178-1.243 1.826-2.696 1.874-4.201.182-5.728 1.726-19.747 12.092-26.217.081-.051.169-.093.251-.143-11.842-4.384-21.266-4.345-28.007.143-9.716 6.469-11.162 20.489-11.333 26.217-.045 1.505-.652 2.958-1.756 4.201-6.084 6.856-4.751 26.885-3.332 35.131 3.143 13.874 7.697 25.972 13.532 35.958 5.923 10.138 14.894 18.022 25.942 22.802a19.679 19.679 0 0 0 15.57 0 57.815 57.815 0 0 0 6.643-3.405c-8.555-4.778-15.594-11.379-20.593-19.397z" opacity="1" data-original="#ffaa7b"></path><path fill="#e9efff" d="M418.153 19.228c-.861 1.018-1.818 2.57-1.858 4.457-.04 1.92.841 3.717 2.62 5.349V64.18c-.812 1.041-2.565 3.66-2.322 6.595.119 1.439.683 2.734 1.675 3.869a105.202 105.202 0 0 1 44.676 8.948c2.484 1.097 5.438.9 7.425-.345a9.4 9.4 0 0 0 4.279-6.364l6.959-40.029c1.611-9.269-5.523-17.751-14.931-17.751h-48.661c.05.041.09.083.138.125z" opacity="1" data-original="#e9efff" class=""></path><path fill="#d3dcfb" d="M420.415 64.719v-36.37c-5.898-4.824 0-9.246 0-9.246h-46.261c-9.408 0-16.543 8.482-14.931 17.751l6.959 40.029a9.403 9.403 0 0 0 4.279 6.364c1.985 1.244 4.939 1.444 7.425.345a105.223 105.223 0 0 1 42.529-8.975c-5.276-4.137 0-9.898 0-9.898z" opacity="1" data-original="#d3dcfb"></path><path fill="#ff4155" d="M420.415 64.718c-3.31 0-6.018-2.708-6.018-6.018V34.367c0-3.31 2.708-6.018 6.018-6.018 3.31 0 6.018 2.708 6.018 6.018V58.7c.001 3.31-2.708 6.018-6.018 6.018z" opacity="1" data-original="#ff4155"></path><path fill="#ff7186" d="M438.6 46.534c0 3.31-2.708 6.018-6.018 6.018h-24.333c-3.31 0-6.018-2.708-6.018-6.018 0-3.31 2.708-6.018 6.018-6.018h24.333c3.31-.001 6.018 2.707 6.018 6.018z" opacity="1" data-original="#ff7186" class=""></path><path fill="#6289cc" d="M94.087 248.74a136.395 136.395 0 0 1-22.864-23.609c-2.257-.147-6.519.018-9.864 2.775-2.622 2.16-4.1 5.421-4.421 9.698a156.339 156.339 0 0 0 25.264 25.805l2.619 2.172a3.873 3.873 0 0 0 5.243-.273l10.817-11.061z" opacity="1" data-original="#6289cc"></path><path fill="#4f71b6" d="M72.499 226.784c-13.463-17.204-19.521-33.457-21.779-40.857-.432-1.415-2.125-1.983-3.337-1.135-1.743 1.221-2.65 1.582-2.65 1.582s-3.947 2.01-10.164 4.821a2.171 2.171 0 0 0-1.172 2.655c3.237 9.917 10.43 27.359 24.969 45.572.001-15.386 14.133-12.638 14.133-12.638z" opacity="1" data-original="#4f71b6" class=""></path><path fill="#3c58a0" d="M263.291 309.395c-3.608 0-6.811-1.569-10.024-1.569-2.941 0-5.889 1.569-9.164 1.569l-6.82 20.924a398.94 398.94 0 0 0 7.605 11.557 74.685 74.685 0 0 1 8.206 15.776 74.727 74.727 0 0 1 8.205-15.776 401.505 401.505 0 0 0 8.676-13.258z" opacity="1" data-original="#3c58a0"></path><path fill="#73c3f9" d="M281.531 308.93c8.24-15.051 16.408-32.468 22.379-50.864a3.475 3.475 0 0 1 2.5-2.314l-1.789-2.216c-2.431-3.01-6.953-3.201-9.627-.405l-26.456 27.659a7.54 7.54 0 0 0-1.638 7.779c1.938 5.373 6.228 14.27 14.631 20.361zM202.277 258.066c6.081 18.736 14.442 36.453 22.836 51.693 9.195-6.086 13.793-15.569 15.822-21.19a7.54 7.54 0 0 0-1.638-7.779l-26.456-27.659c-2.674-2.796-7.197-2.606-9.627.405l-2.298 2.721a3.46 3.46 0 0 1 1.361 1.809z" opacity="1" data-original="#73c3f9" class=""></path><path fill="#ffaa7b" d="M330.755 138.211c-3.218-2.949-9.628-1.454-12.399.352.607 3.781.642 7.649.117 11.469l-3.271 23.82c0 1.92-.06 3.804-.172 5.655 7.975 2.405 11.936-4.754 12.604-9.667.287-2.115.757-4.2 1.408-6.234 2.123-6.627 9.775-18.007 1.713-25.395z" opacity="1" data-original="#ffaa7b"></path><path fill="#fc9460" d="M176.638 138.211c3.218-2.949 9.628-1.454 12.399.352a38.938 38.938 0 0 0-.117 11.469l3.27 23.82c0 1.92.061 3.804.172 5.655-7.975 2.405-11.936-4.754-12.604-9.667a36.581 36.581 0 0 0-1.408-6.234c-2.121-6.627-9.774-18.007-1.712-25.395z" opacity="1" data-original="#fc9460"></path><path fill="#bec8f7" d="M249.008 375.822c-16.933-19.039-38.186-27.113-46.758-29.75a4.348 4.348 0 0 1-2.916-5.359l2.99-10.691c.572-2.046.164-4.19-1.12-5.882s-3.239-2.663-5.363-2.663h-3.046c-9.707 1.377-39.858 8.454-39.858 43.154v125.702c29.645 13.404 62.433 21.082 96.958 21.618V369.112a74.775 74.775 0 0 0-.887 6.71z" opacity="1" data-original="#bec8f7"></path><path fill="#a2b2ed" d="M154.437 364.63c0-40.184 41.403-41.977 41.403-41.977.106-.404.227-.772.341-1.157-.114-.006-.226-.02-.341-.02h-18.22c-1.248 0-2.398-.508-3.238-1.431s-1.238-2.116-1.121-3.359l3.641-38.596c.2-2.12.87-4.131 1.929-5.911-12.62 5.719-31.863 13.8-50.909 19.322-11.984 3.475-21.283 12.967-24.47 25.031-6.584 24.921-16.698 70.568-20.216 126.354a245.377 245.377 0 0 0 71.202 48.11l-.001-126.366z" opacity="1" data-original="#a2b2ed" class=""></path><circle cx="177.934" cy="386.574" r="32.158" fill="#e9efff" transform="rotate(-22.48 177.982 386.208)" opacity="1" data-original="#e9efff" class=""></circle><path fill="#d3dcfb" d="M244.997 340.654c-5.965-8.729-13.332-20.287-20.6-33.68l-.012.139c-3.575-1.458-11.271-3.811-18.328-.727-5.386 2.354-9.213 7.352-11.384 14.858-1.475.148-4.317.521-7.852 1.408h9.02c3.678 0 6.341 3.509 5.35 7.051l-2.99 10.691a5.548 5.548 0 0 0 3.703 6.801c9.771 3.005 31.355 11.524 48.085 31.568a73.785 73.785 0 0 1 3.889-20.372 73.784 73.784 0 0 0-8.881-17.737z" opacity="1" data-original="#d3dcfb"></path><path fill="#bec8f7" d="M225.701 309.361v-.005c-8.355-15.126-16.697-32.751-22.75-51.401-.711-2.192-3.328-3.083-5.227-1.777L182.31 266.78a15.344 15.344 0 0 0-6.581 11.201l-3.641 38.596a5.555 5.555 0 0 0 5.531 6.077h18.221c6.711-25.661 29.861-13.293 29.861-13.293z" opacity="1" data-original="#bec8f7"></path><path fill="#d3dcfb" d="M358.63 385.927c0-3.678 2.436-5.879 4.714-6.714 2.232-.816 5.441-.713 7.761 2.031 7.271 8.597 10.957 19.06 10.957 31.1v63.389a246.109 246.109 0 0 0 42.333-32.938c-3.523-55.745-13.63-101.355-20.211-126.263-3.187-12.062-12.486-21.555-24.469-25.029-20.124-5.835-40.468-14.525-52.987-20.269 1.42 2 2.32 4.35 2.557 6.858l3.641 38.596c.117 1.243-.281 2.436-1.121 3.359s-1.99 1.431-3.238 1.431h-18.221c-2.124 0-4.079.971-5.363 2.663s-1.692 3.836-1.12 5.882l2.99 10.691a4.345 4.345 0 0 1-2.915 5.359c-10.781 3.315-36.996 13.674-54.434 39.643h-1.177v126.216c1.81.04 3.622.069 5.442.069 37.526 0 73.074-8.446 104.862-23.529V385.927z" opacity="1" data-original="#d3dcfb"></path><path fill="#e9efff" d="M261.19 340.654c12.46-18.233 31.038-48.783 42.046-82.698.711-2.192 3.328-3.083 5.227-1.777l15.414 10.602a15.34 15.34 0 0 1 6.58 11.201l3.641 38.596a5.555 5.555 0 0 1-5.531 6.077h-18.221c-3.678 0-6.34 3.509-5.35 7.051l2.99 10.691a5.547 5.547 0 0 1-3.703 6.801c-11.396 3.505-38.867 14.494-55.957 42.54v-7.445a73.786 73.786 0 0 1 12.864-41.639z" opacity="1" data-original="#e9efff" class=""></path><path fill="#ffc7ab" d="M317.172 131.203c-.736-1.92-1.664-3.866-2.833-5.7-1.98-3.107-2.852-6.782-2.586-10.446.763-10.539.354-31.152-13.481-37.377-11.754-5.289-26.172-2.227-35.367.831a29.192 29.192 0 0 1-14.231 1.041c-8.644 8.77-8.817 25.323-8.149 34.42a17.353 17.353 0 0 1-2.656 10.606c-1.16 1.82-2.088 3.746-2.83 5.652-2.407 6.184-3.109 12.892-2.207 19.459l3.35 24.398c0 35.076 18.724 58.917 34.65 71.285 1.279.993 2.621 1.887 3.987 2.736a46.1 46.1 0 0 0 7.332-4.647c15.553-12.077 33.837-35.358 33.837-69.61l3.271-23.82c.871-6.35.21-12.836-2.087-18.828z" opacity="1" data-original="#ffc7ab"></path><path fill="#ffaa7b" d="M270.966 243.46c-15.553-12.077-33.837-35.358-33.837-69.61l-3.271-23.825c-.881-6.413-.195-12.963 2.156-19.002.725-1.862 1.631-3.743 2.764-5.52a16.955 16.955 0 0 0 2.593-10.357c-.697-9.492-.458-27.3 9.811-35.262a29.163 29.163 0 0 1-6.692-1.374c-9.195-3.058-23.613-6.12-35.367-.831-13.875 6.243-14.247 26.956-13.475 37.467a16.957 16.957 0 0 1-2.593 10.357c-1.132 1.777-2.038 3.658-2.763 5.52-2.351 6.039-3.036 12.589-2.156 19.002l3.271 23.825c0 34.252 18.284 57.533 33.837 69.61a46.397 46.397 0 0 0 28.454 9.728 46.457 46.457 0 0 0 22.862-6.017 45.722 45.722 0 0 1-5.594-3.711z" opacity="1" data-original="#ffaa7b"></path><path fill="#ff4155" d="M177.934 404.759c-3.31 0-6.018-2.708-6.018-6.018v-24.333c0-3.31 2.708-6.018 6.018-6.018 3.31 0 6.018 2.708 6.018 6.018v24.333c.001 3.31-2.708 6.018-6.018 6.018z" opacity="1" data-original="#ff4155"></path><path fill="#ff7186" d="M196.119 386.574c0 3.31-2.708 6.018-6.018 6.018h-24.334c-3.31 0-6.018-2.708-6.018-6.018 0-3.31 2.708-6.018 6.018-6.018h24.334c3.31 0 6.018 2.708 6.018 6.018z" opacity="1" data-original="#ff7186" class=""></path><path fill="#bec8f7" d="M383.562 412.344c0-14.671-5.396-25.073-11.311-32.068-5.147-6.086-15.12-2.319-15.12 5.651v103.246a244.714 244.714 0 0 0 26.432-14.354l-.001-62.475z" opacity="1" data-original="#bec8f7"></path></g></svg>