<svg xmlns="http://www.w3.org/2000/svg" version="1.1" xmlns:xlink="http://www.w3.org/1999/xlink" width="512" height="512" x="0" y="0" viewBox="0 0 512 512" style="enable-background:new 0 0 512 512" xml:space="preserve" class=""><g><circle cx="256" cy="256" r="128" fill="#fadb41" opacity="1" data-original="#fadb41" class=""></circle><path fill="#fadb41" d="M256 76.791c-14.15 0-25.6-11.463-25.6-25.6V25.6C230.4 11.463 241.85 0 256 0s25.6 11.463 25.6 25.6v25.591c0 14.137-11.45 25.6-25.6 25.6zM400.825 136.778c-6.55 0-13.1-2.5-18.1-7.5-10-9.997-10-26.206 0-36.203l18.1-18.097c10-9.994 26.2-9.997 36.2.003 10 9.997 10 26.206 0 36.203l-18.1 18.097a25.526 25.526 0 0 1-18.1 7.497zM486.4 281.6h-25.6c-14.15 0-25.6-11.463-25.6-25.6s11.45-25.6 25.6-25.6h25.6c14.15 0 25.6 11.463 25.6 25.6s-11.45 25.6-25.6 25.6zM418.925 444.519c-6.55 0-13.1-2.497-18.1-7.497l-18.1-18.097c-10-9.997-10-26.206 0-36.203 10-10 26.2-10.003 36.2-.003l18.1 18.097c10 9.997 10 26.206 0 36.203-5 5-11.55 7.5-18.1 7.5zM256 512c-14.15 0-25.6-11.463-25.6-25.6v-25.591c0-14.137 11.45-25.6 25.6-25.6s25.6 11.463 25.6 25.6V486.4c0 14.137-11.45 25.6-25.6 25.6zM93.075 444.519c-6.55 0-13.1-2.5-18.1-7.5-10-9.997-10-26.206 0-36.203l18.1-18.097c10-9.994 26.2-9.997 36.2.003 10 9.997 10 26.206 0 36.203l-18.1 18.097a25.526 25.526 0 0 1-18.1 7.497zM51.2 281.6H25.6C11.45 281.6 0 270.137 0 256s11.45-25.6 25.6-25.6h25.6c14.15 0 25.6 11.463 25.6 25.6s-11.45 25.6-25.6 25.6zM111.175 136.778c-6.55 0-13.1-2.497-18.1-7.497l-18.1-18.097c-10-9.997-10-26.206 0-36.203 10-10 26.2-10.003 36.2-.003l18.1 18.097c10 9.997 10 26.206 0 36.203-5 5-11.55 7.5-18.1 7.5z" opacity="1" data-original="#fadb41" class=""></path></g></svg>