<svg xmlns="http://www.w3.org/2000/svg" version="1.1" xmlns:xlink="http://www.w3.org/1999/xlink" width="512" height="512" x="0" y="0" viewBox="0 0 512 512" style="enable-background:new 0 0 512 512" xml:space="preserve" class=""><g><path fill="#e5e3ee" d="M157.821 482c-8.284 0-15 6.716-15 15s6.716 15 15 15h98.254l10.001-15-10.001-15z" opacity="1" data-original="#e5e3ee"></path><path fill="#d6d9ef" d="M354.179 482h-98.104v30h98.104c8.284 0 15-6.716 15-15s-6.716-15-15-15z" opacity="1" data-original="#d6d9ef" class=""></path><path fill="#ff0000" d="M256 0C151.629 0 66.718 84.912 66.718 189.282c0 39.858 9.601 81.575 28.534 123.993 14.943 33.477 35.718 67.49 61.748 101.094 44.11 56.947 87.68 92.755 89.514 94.251a14.973 14.973 0 0 0 9.485 3.38l.076-.003 10.001-289.033L256.075.001 256 0z" opacity="1" data-original="#ffd748" class=""></path><path fill="#ff0000" d="M256.075.001v511.996a14.972 14.972 0 0 0 9.41-3.377c1.834-1.497 45.403-37.305 89.515-94.251 26.029-33.604 46.805-67.617 61.748-101.094 18.934-42.417 28.534-84.135 28.534-123.993C445.282 84.937 360.411.042 256.075.001z" opacity="1" data-original="#ffc335" class=""></path><path fill="#faf7fc" d="M256.075 56.782c-73.178 0-132.5 59.322-132.5 132.5 0 43.069 20.549 81.339 52.377 105.539l80.123 6.96 10.001-116.289z" opacity="1" data-original="#faf7fc" class=""></path><path fill="#ebeaf2" d="M255.925 56.782c73.178 0 132.5 59.322 132.5 132.5 0 43.069-20.549 81.339-52.377 105.539l-80.123 6.96z" opacity="1" data-original="#ebeaf2" class=""></path><path fill="#00b6ea" d="M256.022 217.865h-30.065c-27.614 0-50 22.386-50 50v26.949c22.238 16.908 49.976 26.955 80.065 26.967l10.001-51.958z" opacity="1" data-original="#00ea59" class=""></path><path fill="#00b6ea" d="M286.087 217.865h-30.065v103.916l.053.001c30.061 0 57.779-10.017 80.012-26.887v-27.03c0-27.614-22.386-50-50-50z" opacity="1" data-original="#00d166" class=""></path><path fill="#f4a562" d="M256.075 99.236c-29.108 0-52.789 23.681-52.789 52.79v20.421c0 29.108 23.681 52.79 52.79 52.79l8.889-63z" opacity="1" data-original="#f4a562" class=""></path><path fill="#e4934d" d="M256.075 99.236v126.001c29.108 0 52.79-23.681 52.79-52.79v-20.421c0-29.108-23.681-52.789-52.79-52.79z" opacity="1" data-original="#e4934d" class=""></path></g></svg>