<svg xmlns="http://www.w3.org/2000/svg" version="1.1" xmlns:xlink="http://www.w3.org/1999/xlink" width="512" height="512" x="0" y="0" viewBox="0 0 512 512" style="enable-background:new 0 0 512 512" xml:space="preserve"><g><g data-name="Layer 2"><g data-name="Layer 1"><g data-name="96"><path fill="#0593fc" d="M382.79 512H23A23 23 0 0 1 .77 483.18l6.13-23.37a107.4 107.4 0 0 1 103.88-80.11H295a107.4 107.4 0 0 1 103.88 80.11l6.12 23.37A23 23 0 0 1 382.79 512z" opacity="1" data-original="#0593fc"></path><path fill="#0584e3" d="M35 483.17A23 23 0 0 0 57.26 512H23A23 23 0 0 1 .77 483.17l6.13-23.36a107.39 107.39 0 0 1 103.88-80.11H145a107.38 107.38 0 0 0-103.83 80.11z" opacity="1" data-original="#0584e3"></path><path fill="#056bb8" d="M93.84 464.25V512H67.32v-47.75a13.26 13.26 0 1 1 26.52 0zM338.47 464.25V512H312v-47.75a13.26 13.26 0 0 1 26.52 0z" opacity="1" data-original="#056bb8"></path><path fill="#f6a76e" d="M239.08 319v35c0 16.9 17 25.74 17 25.74-35.87 33-71.32 33.81-106.34 0 0 0 17-8.84 17-25.74v-35z" opacity="1" data-original="#f6a76e"></path><path fill="#883f2e" d="M350.64 128.63c0 71-71.53 128.52-159.76 128.52s-138.63-60.07-145.7-122C37.12 64.65 84.42-3 172.6.1c116.14 4.13 178.04 57.55 178.04 128.53z" opacity="1" data-original="#883f2e"></path><path fill="#6b3125" d="M218.5 255.24a198.7 198.7 0 0 1-27.62 1.91c-88.24 0-138.63-60.07-145.71-122C37.12 64.65 84.42-3 172.6.11q12.87.45 24.85 1.71c-69.22 11-105.25 71.09-98.13 133.36 6.32 55.4 47.36 109.35 119.18 120.06z" opacity="1" data-original="#6b3125"></path><path fill="#ffbc85" d="M343.75 219.86a32.66 32.66 0 0 1-32.68 32.68H87.64a32.69 32.69 0 1 1 0-65.37h223.43a32.68 32.68 0 0 1 32.68 32.69z" opacity="1" data-original="#ffbc85"></path><path fill="#f1a96e" d="M199.35 187.17v65.37H87.64a32.69 32.69 0 1 1 0-65.37z" opacity="1" data-original="#f1a96e"></path><path fill="#fed2a5" d="M311.83 167.73v55.74A112.48 112.48 0 0 1 199.36 336 112.48 112.48 0 0 1 86.88 223.47V158.9a18.76 18.76 0 0 1 5.35-13.12c5.1-5.21 13-10.36 25-13.7 0 0 18.1-6 29.62-33.07a3.6 3.6 0 0 1 5.53-1.43c13.81 10.84 64.93 46.73 138.6 48.81a21.38 21.38 0 0 1 20.85 21.34z" opacity="1" data-original="#fed2a5"></path><path fill="#ffbc85" d="M209.17 335.51c-3.23.29-6.51.44-9.82.44A112.48 112.48 0 0 1 86.88 223.47V158.9a18.78 18.78 0 0 1 5.35-13.12c5.1-5.21 13-10.36 25-13.7 0 0 18.11-6 29.62-33.06a3.6 3.6 0 0 1 5.53-1.44 210.58 210.58 0 0 0 27 17.73c-10.7 16.23-22.79 20.25-22.79 20.25-12.06 3.34-19.91 8.48-25 13.7a18.75 18.75 0 0 0-5.36 13.12V227a112.56 112.56 0 0 0 83 108.56z" opacity="1" data-original="#ffbc85"></path><circle cx="394" cy="394" r="118" fill="#ff7e7b" opacity="1" data-original="#ff7e7b"></circle><path fill="#ff4c4c" d="M512 394a118 118 0 0 1-118 118V276a118 118 0 0 1 118 118z" opacity="1" data-original="#ff4c4c"></path><path fill="#fff5f5" d="m437.55 361.21 25.09 25.09a10.89 10.89 0 0 1 0 15.4l-25.09 25.09a10.88 10.88 0 0 1-15.39 0 10.88 10.88 0 0 1 0-15.39l6.51-6.52h-44a10.88 10.88 0 0 1 0-21.76h44l-6.51-6.52a10.88 10.88 0 1 1 15.39-15.39z" opacity="1" data-original="#fff5f5"></path><path fill="#fff5f5" d="M404.08 440.54h-42.15v-93.08h42.15a10.88 10.88 0 0 0 0-21.76h-53a10.88 10.88 0 0 0-10.88 10.88v114.84a10.88 10.88 0 0 0 10.88 10.88h53A10.88 10.88 0 0 0 415 451.42a10.88 10.88 0 0 0-10.92-10.88z" opacity="1" data-original="#fff5f5"></path><g fill="#d8e6eb"><path d="M411.77 443.73a10.88 10.88 0 0 1-7.69 18.57H394v-21.76h10.08a10.85 10.85 0 0 1 7.69 3.19zM404.08 347.46H394V325.7h10.08a10.88 10.88 0 0 1 0 21.76zM465.83 394a10.87 10.87 0 0 1-3.19 7.7l-25.09 25.09a10.88 10.88 0 1 1-15.39-15.39l6.51-6.52H394v-21.76h34.67l-6.51-6.52a10.88 10.88 0 1 1 15.39-15.39l25.09 25.09a10.87 10.87 0 0 1 3.19 7.7z" fill="#d8e6eb" opacity="1" data-original="#d8e6eb"></path></g></g></g></g></g></svg>