<svg xmlns="http://www.w3.org/2000/svg" version="1.1" xmlns:xlink="http://www.w3.org/1999/xlink" width="512" height="512" x="0" y="0" viewBox="0 0 24 24" style="enable-background:new 0 0 512 512" xml:space="preserve" class=""><g><g fill="none" fill-rule="evenodd"><circle cx="16" cy="7" r="7" fill="#fac14c" opacity="1" data-original="#fac14c" class=""></circle><circle cx="16" cy="7" r="6" fill="#ffffff" opacity="1" data-original="#ffffff" class=""></circle><circle cx="16" cy="7" r="5" fill="#fac14c" opacity="1" data-original="#fac14c" class=""></circle><path fill="#ffffff" d="M16.264 10.508h-.557v-.524c-1.203-.077-1.953-.71-1.957-1.663h.984c.037.46.404.787.973.852V7.41l-.388-.097c-.932-.226-1.44-.775-1.44-1.582 0-.952.686-1.573 1.828-1.674V3.5h.557v.557c1.089.097 1.79.746 1.811 1.654h-.964c-.012-.428-.355-.767-.847-.831v1.674l.399.085c1.017.242 1.517.758 1.517 1.61 0 1.004-.698 1.63-1.916 1.727zm.936-2.154c0-.444-.295-.71-.936-.84v1.667c.593-.037.936-.343.936-.827zM14.872 5.65c0 .404.29.674.835.787V4.876c-.484.028-.835.347-.835.774z" opacity="1" data-original="#ffffff" class=""></path><g transform="translate(0 8)"><circle cx="8" cy="8" r="8" fill="#f8a700" opacity="1" data-original="#f8a700" class=""></circle><circle cx="8" cy="8" r="7" fill="#ffffff" opacity="1" data-original="#ffffff" class=""></circle><circle cx="8" cy="8" r="6" fill="#f8a700" opacity="1" data-original="#f8a700" class=""></circle><path fill="#ffffff" d="M8.264 11.508h-.557v-.524c-1.203-.077-1.953-.71-1.957-1.663h.984c.037.46.404.787.973.852V8.41l-.388-.097c-.932-.226-1.44-.775-1.44-1.582 0-.952.686-1.573 1.828-1.674V4.5h.557v.557c1.089.097 1.79.746 1.811 1.654h-.964c-.012-.428-.355-.767-.847-.831v1.674l.399.085c1.017.242 1.517.758 1.517 1.61 0 1.004-.698 1.63-1.916 1.727zM9.2 9.354c0-.444-.295-.71-.936-.84v1.667c.593-.037.936-.343.936-.827zM6.872 6.65c0 .404.29.674.835.787V5.876c-.484.028-.835.347-.835.774z" opacity="1" data-original="#ffffff" class=""></path></g><g transform="translate(17 14)"><circle cx="3.5" cy="3.5" r="3.5" fill="#fac14c" opacity="1" data-original="#fac14c" class=""></circle><circle cx="3.5" cy="3.5" r="3.063" fill="#ffffff" opacity="1" data-original="#ffffff" class=""></circle><circle cx="3.5" cy="3.5" r="2.625" fill="#fac14c" opacity="1" data-original="#fac14c" class=""></circle><path fill="#ffffff" d="M3.615 5.035h-.243v-.23c-.526-.033-.855-.31-.856-.727h.43c.016.201.177.344.426.373v-.772l-.17-.042c-.407-.099-.63-.34-.63-.692 0-.417.3-.689.8-.733V1.97h.243v.243c.477.043.784.327.793.724h-.422c-.005-.187-.155-.335-.37-.364v.733l.174.037c.445.106.664.332.664.704 0 .44-.306.713-.839.756zm.41-.943c0-.194-.129-.31-.41-.367v.73c.26-.017.41-.151.41-.363zM3.006 2.91c0 .176.127.294.366.344V2.57c-.212.012-.366.151-.366.339z" opacity="1" data-original="#ffffff" class=""></path></g><circle cx="4" cy="4" r="4" fill="#fac14c" opacity="1" data-original="#fac14c" class=""></circle><circle cx="4" cy="4" r="3.5" fill="#ffffff" opacity="1" data-original="#ffffff" class=""></circle><circle cx="4" cy="4" r="3" fill="#fac14c" opacity="1" data-original="#fac14c" class=""></circle><path fill="#ffffff" d="M4.132 5.754h-.279v-.262c-.6-.039-.976-.355-.978-.831h.492c.018.23.202.393.486.425v-.881l-.193-.049c-.466-.113-.72-.387-.72-.79 0-.477.342-.787.913-.838V2.25h.279v.278c.544.049.895.374.906.827h-.483c-.006-.213-.177-.383-.423-.415v.837l.2.042c.508.122.758.38.758.805 0 .503-.349.815-.958.864zM4.6 4.677c0-.222-.147-.355-.468-.42v.833c.296-.018.468-.171.468-.413zM3.436 3.325c0 .202.145.337.417.394v-.781c-.242.014-.417.173-.417.387z" opacity="1" data-original="#ffffff" class=""></path></g></g></svg>