<svg xmlns="http://www.w3.org/2000/svg" version="1.1" xmlns:xlink="http://www.w3.org/1999/xlink" width="512" height="512" x="0" y="0" viewBox="0 0 512 512" style="enable-background:new 0 0 512 512" xml:space="preserve"><g><path d="M255.871 0c-29.455 0-53.333 23.878-53.333 53.333.05 2.559.286 5.112.704 7.637a10.668 10.668 0 0 0 10.667 9.131 10.893 10.893 0 0 0 3.008-.427 137.641 137.641 0 0 1 78.101 0c3.031.75 6.237.168 8.811-1.6a11.393 11.393 0 0 0 4.843-7.765c.383-2.314.597-4.652.64-6.997C309.3 23.857 285.412-.012 255.957 0h-.086z" style="" fill="#f57c00" data-original="#f57c00"></path><path d="M319.871 426.667h-128c-5.891 0-10.667 4.776-10.667 10.667 0 41.237 33.429 74.667 74.667 74.667s74.667-33.429 74.667-74.667c0-5.892-4.775-10.667-10.667-10.667z" style="" fill="#ffa000" data-original="#ffa000"></path><path d="M454.719 388.459c-3.371-7.445-7.616-15.765-12.309-24.939a347.303 347.303 0 0 1-47.872-160.853c0-84.544-44.8-146.581-114.091-158.037a136.384 136.384 0 0 0-112.256 32.725 149.782 149.782 0 0 0-51.2 117.76 340.63 340.63 0 0 1-47.616 168.704c-4.587 9.045-8.768 17.28-12.096 24.619-9.614 21.203-.22 46.186 20.984 55.801a42.142 42.142 0 0 0 17.608 3.762h320.341c23.281.07 42.211-18.747 42.28-42.028a42.156 42.156 0 0 0-3.753-17.513h-.02z" style="" fill="#ffc107" data-original="#ffc107"></path><path d="M113.642 405.333c-5.891 0-10.667-4.776-10.666-10.667 0-1.659.387-3.295 1.13-4.778l3.435-6.741a390.827 390.827 0 0 0 52.331-180.48c0-54.123 25.152-117.333 96-117.333 5.891 0 10.667 4.776 10.667 10.667s-4.776 10.667-10.667 10.667c-69.291 0-74.667 73.472-74.667 96a408.948 408.948 0 0 1-54.677 190.187l-3.328 6.592a10.669 10.669 0 0 1-9.558 5.886z" style="" fill="#ffd54f" data-original="#ffd54f"></path></g></svg>