<svg xmlns="http://www.w3.org/2000/svg" version="1.1" xmlns:xlink="http://www.w3.org/1999/xlink" width="512" height="512" x="0" y="0" viewBox="0 0 512.001 512" style="enable-background:new 0 0 512 512" xml:space="preserve" class=""><g><path fill="#19cffc" d="M503.727 201.277a144.964 144.964 0 0 0-51.618-51.214c-21.902-12.75-46.941-19.493-72.414-19.493-25.472 0-50.511 6.743-72.414 19.493a144.996 144.996 0 0 0-51.617 51.214c-10.871 18.344-11.035 40.399-.434 59.004 10.708 18.801 29.993 30.02 51.583 30.02h145.765c21.594 0 40.875-11.223 51.586-30.02 10.598-18.605 10.434-40.66-.437-59.004zm0 0" opacity="1" data-original="#19cffc"></path><path fill="#4ab8f7" d="M452.113 150.047c-21.898-12.754-46.941-19.496-72.414-19.496h-.004v159.734h72.887c21.594 0 40.875-11.222 51.582-30.02 10.602-18.605 10.438-40.663-.434-59.003a144.901 144.901 0 0 0-51.617-51.215zm0 0" opacity="1" data-original="#4ab8f7"></path><path fill="#ffd2bf" d="M436.918 23.703C421.633 8.418 401.313 0 379.695 0c-21.617 0-41.937 8.418-57.218 23.703-15.286 15.285-23.704 35.606-23.704 57.219 0 21.617 8.418 41.937 23.704 57.223 15.28 15.285 35.601 23.703 57.218 23.703 21.618 0 41.938-8.418 57.223-23.703 15.285-15.286 23.703-35.606 23.703-57.223 0-21.613-8.418-41.934-23.703-57.219zm0 0" opacity="1" data-original="#ffd2bf" class=""></path><path fill="#ffb89c" d="M436.922 23.684C421.145 7.906 400.422.02 379.695.02v161.77h.004c20.723 0 41.446-7.888 57.223-23.665 31.55-31.55 31.55-82.89 0-114.441zm0 0" opacity="1" data-original="#ffb89c" class=""></path><path fill="#27488f" d="M256.332 201.277a144.964 144.964 0 0 0-51.617-51.214c-21.899-12.75-46.942-19.493-72.414-19.493-25.473 0-50.512 6.743-72.414 19.493A144.996 144.996 0 0 0 8.27 201.276c-10.872 18.34-11.036 40.399-.434 59.004 10.707 18.797 29.992 30.02 51.582 30.02h145.77c21.59 0 40.87-11.219 51.582-30.02 10.597-18.601 10.433-40.66-.438-59.004zm0 0" opacity="1" data-original="#27488f" class=""></path><path fill="#12254c" d="M204.719 150.047c-21.899-12.754-46.942-19.496-72.414-19.496h-.004v159.734h72.887c21.593 0 40.875-11.222 51.582-30.02 10.601-18.605 10.437-40.663-.434-59.003a144.901 144.901 0 0 0-51.617-51.215zm0 0" opacity="1" data-original="#12254c"></path><path fill="#ffd2bf" d="M189.523 23.703C174.238 8.418 153.918 0 132.301 0c-21.613 0-41.938 8.418-57.219 23.703C59.797 38.988 51.379 59.31 51.379 80.922c0 21.617 8.418 41.937 23.703 57.223 15.281 15.285 35.606 23.703 57.219 23.703 21.617 0 41.937-8.418 57.222-23.703 15.286-15.286 23.704-35.606 23.704-57.223 0-21.613-8.418-41.934-23.704-57.219zm0 0" opacity="1" data-original="#ffd2bf" class=""></path><path fill="#ffb89c" d="M189.527 23.684C173.75 7.906 153.027.02 132.301.02v161.77h.004c20.722 0 41.445-7.888 57.222-23.665 31.551-31.55 31.551-82.89 0-114.441zm0 0" opacity="1" data-original="#ffb89c" class=""></path><path fill="#fe6a16" d="M380.027 265.508a144.89 144.89 0 0 0-51.613-51.215c-21.902-12.754-46.941-19.492-72.414-19.492s-50.516 6.738-72.414 19.492a144.901 144.901 0 0 0-51.617 51.215c-10.871 18.34-11.035 40.398-.434 59.004 10.707 18.797 29.988 30.02 51.582 30.02h145.766c21.59 0 40.875-11.223 51.582-30.02 10.598-18.606 10.437-40.664-.438-59.004zm0 0" opacity="1" data-original="#fe6a16"></path><path fill="#ff432e" d="M328.414 214.293c-21.902-12.754-46.941-19.496-72.414-19.496h-.004V354.53h72.887c21.59 0 40.875-11.222 51.582-30.02 10.597-18.605 10.437-40.663-.438-59.003a144.89 144.89 0 0 0-51.613-51.215zm0 0" opacity="1" data-original="#ff432e"></path><path fill="#ffd2bf" d="M313.223 87.93c-31.555-31.551-82.891-31.551-114.446 0-31.55 31.55-31.55 82.89 0 114.441 15.778 15.777 36.5 23.664 57.223 23.664s41.445-7.887 57.223-23.664c31.55-31.55 31.55-82.89 0-114.441zm0 0" opacity="1" data-original="#ffd2bf" class=""></path><path fill="#ffb89c" d="M313.223 87.93c-15.778-15.778-36.504-23.664-57.227-23.664v161.77H256c20.723 0 41.445-7.888 57.223-23.665 31.55-31.55 31.55-82.89 0-114.441zm0 0" opacity="1" data-original="#ffb89c" class=""></path></g></svg>