<svg xmlns="http://www.w3.org/2000/svg" version="1.1" xmlns:xlink="http://www.w3.org/1999/xlink" width="512" height="512" x="0" y="0" viewBox="0 0 24 24" style="enable-background:new 0 0 512 512" xml:space="preserve"><g><g data-name="Layer 2"><path fill="#9c34c2" d="M18.5 20.5h-13a1 1 0 0 1 0-2h13a1 1 0 0 1 0 2z" opacity="1" data-original="#9c34c2"></path><path fill="#ffce29" d="M21.13 6.25a2 2 0 0 0-2.24-.08l-2.42 1.4-2.76-4.15a2.06 2.06 0 0 0-3.42 0L7.46 7.58 5.1 6.17A2 2 0 0 0 2 8.33l1.47 7.32a2 2 0 0 0 2 1.65h13a2 2 0 0 0 2-1.65L22 8.33a2 2 0 0 0-.87-2.08z" opacity="1" data-original="#ffce29"></path></g></g></svg>