<svg xmlns="http://www.w3.org/2000/svg" version="1.1" xmlns:xlink="http://www.w3.org/1999/xlink" width="512" height="512" x="0" y="0" viewBox="0 0 512 512" style="enable-background:new 0 0 512 512" xml:space="preserve" class=""><g><path fill="#dff6fd" d="M394.77 270.459a9.34 9.34 0 0 1-9.747 0c-64.477-39.455-104.438-79.455-104.438-156.846V82.379H65.059a5.15 5.15 0 0 0-5.151 5.151v293.579h121.576c5.13 0 9.303 4.173 9.303 9.302v81.395h213.456a5.15 5.15 0 0 0 5.151-5.151v-205.45a541.902 541.902 0 0 1-14.624 9.254z" opacity="1" data-original="#dff6fd"></path><path fill="#c8effe" d="M103.279 381.109V87.53a5.15 5.15 0 0 1 5.151-5.151H65.059a5.15 5.15 0 0 0-5.151 5.151v293.579z" opacity="1" data-original="#c8effe"></path><g fill="#62dbfb"><path d="M283.235 146.024H144.783c-4.143 0-7.5 3.358-7.5 7.5s3.357 7.5 7.5 7.5h141.822a153.653 153.653 0 0 1-3.37-15zM294.972 183.469H144.783c-4.143 0-7.5 3.358-7.5 7.5s3.357 7.5 7.5 7.5h158.508a138.301 138.301 0 0 1-8.319-15zM320.805 220.914H219.943c-4.143 0-7.5 3.358-7.5 7.5s3.357 7.5 7.5 7.5h104.575a7.5 7.5 0 0 0 6.873-4.502 194.765 194.765 0 0 1-10.586-10.498z" fill="#62dbfb" opacity="1" data-original="#62dbfb"></path></g><path fill="#62dbfb" d="M189.038 235.914h-44.255c-4.143 0-7.5-3.358-7.5-7.5s3.357-7.5 7.5-7.5h44.255c4.143 0 7.5 3.358 7.5 7.5s-3.357 7.5-7.5 7.5z" opacity="1" data-original="#62dbfb"></path><path fill="#01d0fb" d="M324.519 273.358H144.783c-4.143 0-7.5-3.358-7.5-7.5s3.357-7.5 7.5-7.5h179.735c4.143 0 7.5 3.358 7.5 7.5s-3.357 7.5-7.499 7.5zM324.519 310.803h-47.915c-4.143 0-7.5-3.358-7.5-7.5s3.357-7.5 7.5-7.5h47.915a7.5 7.5 0 0 1 0 15zM248.789 295.803H148.471a64.478 64.478 0 0 1 10.554 15h89.765a7.5 7.5 0 1 0-.001-15zM324.519 333.248H165.631c.217 2.143.329 4.317.329 6.517v8.483h158.559a7.5 7.5 0 0 0 0-15zM324.519 370.693H165.96v10.416h15.524c3.406 0 6.383 1.846 8.003 4.584h135.031c4.143 0 7.5-3.358 7.5-7.5s-3.357-7.5-7.499-7.5z" opacity="1" data-original="#01d0fb"></path><path fill="#fac600" d="M285.281 51.069a10.301 10.301 0 0 0-5.696 9.215v53.329c0 78.849 41.897 119.136 104.915 157.699a10.343 10.343 0 0 0 10.791 0c63.019-38.563 104.915-78.85 104.915-157.699V60.284c0-3.903-2.205-7.47-5.696-9.215L394.501 1.087a10.302 10.302 0 0 0-9.211 0z" opacity="1" data-original="#fac600" class=""></path><path fill="#e8b800" d="M316.618 96.615V35.408l-31.337 15.661a10.301 10.301 0 0 0-5.696 9.215v53.329c0 78.849 41.897 119.136 104.915 157.699a10.342 10.342 0 0 0 10.79 0c9.178-5.616 17.903-11.27 26.121-17.073-62.95-38.54-104.793-78.826-104.793-157.624z" opacity="1" data-original="#e8b800"></path><circle cx="389.432" cy="124.174" r="70.461" fill="#4fc123" opacity="1" data-original="#4fc123"></circle><path fill="#47a920" d="M348.852 124.174c0-33.786 23.785-62.004 55.52-68.858a70.71 70.71 0 0 0-14.94-1.602c-38.914 0-70.461 31.546-70.461 70.461s31.546 70.461 70.461 70.461a70.71 70.71 0 0 0 14.94-1.602c-31.735-6.856-55.52-35.074-55.52-68.86z" opacity="1" data-original="#47a920"></path><path fill="#ffffff" d="M385.789 151.9a7.478 7.478 0 0 1-5.304-2.197l-23.166-23.166a7.5 7.5 0 0 1 10.607-10.606l17.862 17.862 30.603-30.604a7.5 7.5 0 0 1 10.607 10.606l-35.906 35.907a7.47 7.47 0 0 1-5.303 2.198z" opacity="1" data-original="#ffffff"></path><path fill="#3675bb" d="M67.526 381.109v-41.343c0-18.893 15.371-34.265 34.265-34.265s34.265 15.371 34.265 34.265v41.343h30.905v-41.344c0-35.992-29.177-65.17-65.17-65.17s-65.17 29.177-65.17 65.17v41.344z" opacity="1" data-original="#3675bb"></path><path fill="#2263aa" d="M54.084 381.109v-41.344c0-33.029 24.577-60.301 56.438-64.57a65.666 65.666 0 0 0-8.732-.599c-35.992 0-65.17 29.177-65.17 65.17v41.344h17.464z" opacity="1" data-original="#2263aa"></path><path fill="#fac600" d="M181.485 512H22.096c-5.69 0-10.302-4.612-10.302-10.302V390.41c0-5.69 4.612-10.302 10.302-10.302h159.389c5.69 0 10.302 4.612 10.302 10.302v111.288c0 5.69-4.613 10.302-10.302 10.302z" opacity="1" data-original="#fac600" class=""></path><path fill="#e8b800" d="M55.115 501.698V390.41c0-5.69 4.612-10.302 10.302-10.302H22.096c-5.69 0-10.302 4.612-10.302 10.302v111.288c0 5.69 4.612 10.302 10.302 10.302h43.321c-5.69 0-10.302-4.612-10.302-10.302z" opacity="1" data-original="#e8b800"></path></g></svg>