<svg xmlns="http://www.w3.org/2000/svg" version="1.1" xmlns:xlink="http://www.w3.org/1999/xlink" width="512" height="512" x="0" y="0" viewBox="0 0 512 512" style="enable-background:new 0 0 512 512" xml:space="preserve" class=""><g><circle cx="267" cy="256" r="245" fill="#efc400" opacity="1" data-original="#fee903" class=""></circle><circle cx="286.787" cy="256" r="200" fill="#fed402" opacity="1" data-original="#fed402" class=""></circle><path fill="#dff6fd" d="M70.702 123.491v266.681c0 5.652-4.582 10.234-10.234 10.234H32c-17.673 0-32-14.327-32-32V121.853l4.66-6.361h58.043a7.999 7.999 0 0 1 7.999 7.999z" opacity="1" data-original="#dff6fd"></path><path fill="#f2fbff" d="m462.362 115.491 5.638 6.361v246.553c0 17.673-14.327 32-32 32H60c-17.673 0-32-14.327-32-32V115.491z" opacity="1" data-original="#f2fbff" class=""></path><path fill="#26a6fe" d="M30.128 93.852c0-17.673 14.327-32 32-32H32c-17.673 0-32 14.327-32 32v28h28l2.128-4.83z" opacity="1" data-original="#26a6fe"></path><path fill="#01c0fa" d="M468 121.852v-28c0-17.673-14.327-32-32-32H60c-17.673 0-32 14.327-32 32v28z" opacity="1" data-original="#01c0fa" class=""></path><g fill="#62dbfb"><circle cx="42" cy="93.448" r="10" fill="#62dbfb" opacity="1" data-original="#62dbfb"></circle><circle cx="77" cy="93.448" r="10" fill="#62dbfb" opacity="1" data-original="#62dbfb"></circle><circle cx="112" cy="93.448" r="10" fill="#62dbfb" opacity="1" data-original="#62dbfb"></circle></g><path fill="#fe73c5" d="M78.787 200.363H48a8 8 0 0 1-8-8V167.15a8 8 0 0 1 8-8h30.787a8 8 0 0 1 8 8v25.213a8 8 0 0 1-8 8z" opacity="1" data-original="#fe73c5"></path><path fill="#fe93d3" d="M272 200.363H78a8 8 0 0 1-8-8V167.15a8 8 0 0 1 8-8h194a8 8 0 0 1 8 8v25.213a8 8 0 0 1-8 8z" opacity="1" data-original="#fe93d3"></path><path fill="#05e39c" d="M420 200.363h-72a8 8 0 0 1-8-8V167.15a8 8 0 0 1 8-8h72a8 8 0 0 1 8 8v25.213a8 8 0 0 1-8 8z" opacity="1" data-original="#05e39c"></path><path fill="#62dbfb" d="M124.286 351.852H50c-5.523 0-10-4.477-10-10s4.477-10 10-10h74.286c5.523 0 10 4.477 10 10s-4.477 10-10 10zM48 233.088h30.787a8 8 0 0 1 8 8v21.063a8 8 0 0 1-8 8H48a8 8 0 0 1-8-8v-21.063a8 8 0 0 1 8-8z" opacity="1" data-original="#62dbfb"></path><path fill="#99e6fc" d="M78 233.088h64a8 8 0 0 1 8 8v21.063a8 8 0 0 1-8 8H78a8 8 0 0 1-8-8v-21.063a8 8 0 0 1 8-8z" opacity="1" data-original="#99e6fc"></path><path fill="#62dbfb" d="M140 311.852H50c-5.523 0-10-4.477-10-10s4.477-10 10-10h90c5.523 0 10 4.477 10 10s-4.477 10-10 10z" opacity="1" data-original="#62dbfb"></path><path fill="#6c7fd8" d="m295.72 273.978 21.21-21.21 106.05 106.05-21.21 21.21z" opacity="1" data-original="#6c7fd8" class=""></path><path fill="#fe5ca7" d="M504.385 461.349c-10.154 10.154-26.616 10.154-36.77 0l-69.297-69.297c-10.154-10.154-10.154-26.616 0-36.77 10.154-10.154 26.616-10.154 36.77 0l69.297 69.296c10.153 10.155 10.153 26.617 0 36.771z" opacity="1" data-original="#fe5ca7" class=""></path><path fill="#2740b0" d="M269.947 220.991c-31.735-31.735-45.326-74.743-40.773-116.134.988-8.988-8.029-15.784-16.389-12.341-16.841 6.937-32.62 17.247-46.303 30.93-55.507 55.507-55.507 145.503 0 201.01 55.507 55.508 145.503 55.508 201.01 0 14.017-14.016 24.493-30.232 31.431-47.536 3.18-7.931-3.267-16.279-11.753-15.28-41.725 4.914-85.209-8.636-117.223-40.649z" opacity="1" data-original="#2740b0"></path><path fill="#314dc9" d="M381.934 285.933c7.616.753 14.899-3.568 17.655-10.707 19.636-50.863 8.937-110.746-32.097-151.78-41.601-41.601-102.574-52.023-153.882-31.267-7.099 2.872-11.313 10.222-10.438 17.829l.043.373c1.305 11.166 12.895 18.148 23.313 13.924 38.829-15.745 84.994-7.872 116.485 23.619 31.048 31.048 39.138 76.359 24.27 114.84-4.059 10.505 3.072 22.002 14.276 23.131l.375.038z" opacity="1" data-original="#314dc9" class=""></path><circle cx="266.987" cy="223.951" r="109.801" fill="#6c7fd8" opacity="1" data-original="#6c7fd8" class=""></circle><path fill="#ffcebf" d="M228.017 216.399c15.716 0 28.457-12.741 28.457-28.457v-9.486c0-15.716-12.741-28.457-28.457-28.457-15.716 0-28.457 12.741-28.457 28.457v9.486c0 15.717 12.741 28.457 28.457 28.457z" opacity="1" data-original="#ffcebf" class=""></path><path fill="#00f2a6" d="M185 286.027h73.61c9.623 0 17.424-7.801 17.424-17.424v-9.489c0-16.569-13.431-30-30-30H210c-16.569 0-30 13.431-30 30v21.914a5 5 0 0 0 5 4.999z" opacity="1" data-original="#00f2a6" class=""></path><path fill="#ffdfcf" d="M298.008 216.399c15.716 0 28.457-12.741 28.457-28.457v-9.486c0-15.716-12.741-28.457-28.457-28.457-15.716 0-28.457 12.741-28.457 28.457v9.486c.001 15.717 12.741 28.457 28.457 28.457z" opacity="1" data-original="#ffdfcf" class=""></path><path fill="#f2fbff" d="M254.991 286.027h86.034a5 5 0 0 0 5-5v-21.914c0-16.569-13.431-30-30-30h-36.034c-16.569 0-30 13.431-30 30v21.914a5 5 0 0 0 5 5z" opacity="1" data-original="#f2fbff" class=""></path></g></svg>