<svg xmlns="http://www.w3.org/2000/svg" version="1.1" xmlns:xlink="http://www.w3.org/1999/xlink" width="512" height="512" x="0" y="0" viewBox="0 0 512 512" style="enable-background:new 0 0 512 512" xml:space="preserve" class=""><g><path fill="#3630a2" d="M8.787 503.213c-11.716-11.716-11.716-30.711 0-42.426l174.681-174.681 42.426 42.426L51.213 503.213c-11.716 11.716-30.71 11.716-42.426 0z" opacity="1" data-original="#3630a2"></path><path fill="#2e2654" d="M8.787 503.213c11.716 11.716 30.711 11.716 42.426 0l174.681-174.681-21.213-21.213z" opacity="1" data-original="#2e2654"></path><path fill="#005edf" d="M256 395.998c-77.196 0-140-62.804-140-140s62.804-140 140-140 140 62.804 140 140-62.804 140-140 140z" opacity="1" data-original="#005edf" class=""></path><path fill="#3630a2" d="M157.053 354.947c25.35 25.35 60.35 41.05 98.947 41.05 77.196 0 140-62.804 140-140 0-38.598-15.7-73.597-41.05-98.947z" opacity="1" data-original="#3630a2"></path><circle cx="256" cy="255.998" r="110" fill="#bceaf9" opacity="1" data-original="#bceaf9" class=""></circle><path fill="#7dd5f4" d="M178.256 333.744c19.918 19.917 47.418 32.253 77.744 32.253 60.654 0 110-49.346 110-110 0-30.327-12.336-57.826-32.253-77.744z" opacity="1" data-original="#7dd5f4" class=""></path><path fill="#ffef4a" d="M115 160H15c-8.284 0-15-6.716-15-15v-20c0-30.327 24.673-55 55-55h20c30.327 0 55 24.673 55 55v20c0 8.284-6.716 15-15 15z" opacity="1" data-original="#ffef4a" class=""></path><path fill="#ffcb00" d="M75 70H65v90h50c8.284 0 15-6.716 15-15v-20c0-30.327-24.673-55-55-55z" opacity="1" data-original="#ffcb00"></path><path fill="#ffd7aa" d="M65 90c-24.813 0-45-20.187-45-45S40.187 0 65 0s45 20.187 45 45-20.187 45-45 45z" opacity="1" data-original="#ffd7aa" class=""></path><path fill="#00ec89" d="M497 160H397c-8.284 0-15-6.716-15-15v-20c0-30.327 24.673-55 55-55h20c30.327 0 55 24.673 55 55v20c0 8.284-6.716 15-15 15z" opacity="1" data-original="#00ec89"></path><path fill="#00cb75" d="M457 70h-10v90h50c8.284 0 15-6.716 15-15v-20c0-30.327-24.673-55-55-55z" opacity="1" data-original="#00cb75"></path><path fill="#ffd7aa" d="M447 90c-24.813 0-45-20.187-45-45s20.187-45 45-45 45 20.187 45 45-20.187 45-45 45z" opacity="1" data-original="#ffd7aa" class=""></path><path fill="#ffc58f" d="M65 0v90c24.813 0 45-20.187 45-45S89.813 0 65 0zM492 45c0-24.813-20.187-45-45-45v90c24.813 0 45-20.187 45-45z" opacity="1" data-original="#ffc58f" class=""></path><path fill="#bceaf9" d="M497 512H397c-8.284 0-15-6.716-15-15v-20c0-30.327 24.673-55 55-55h20c30.327 0 55 24.673 55 55v20c0 8.284-6.716 15-15 15z" opacity="1" data-original="#bceaf9" class=""></path><path fill="#7dd5f4" d="M457 422h-10v90h50c8.284 0 15-6.716 15-15v-20c0-30.327-24.673-55-55-55z" opacity="1" data-original="#7dd5f4" class=""></path><path fill="#ffd7aa" d="M447 442c-24.813 0-45-20.187-45-45s20.187-45 45-45 45 20.187 45 45-20.187 45-45 45z" opacity="1" data-original="#ffd7aa" class=""></path><path fill="#ffc58f" d="M447 352v90c24.813 0 45-20.187 45-45s-20.187-45-45-45z" opacity="1" data-original="#ffc58f" class=""></path><path fill="#ff8493" d="M306 335.999H206c-8.284 0-15-6.716-15-15v-20c0-30.327 24.673-55 55-55h20c30.327 0 55 24.673 55 55v20c0 8.284-6.716 15-15 15z" opacity="1" data-original="#ff8493"></path><path fill="#ff1f3d" d="M266 245.999h-10v90h50c8.284 0 15-6.716 15-15v-20c0-30.327-24.673-55-55-55z" opacity="1" data-original="#ff1f3d"></path><path fill="#ffd7aa" d="M256 265.999c-24.813 0-45-20.187-45-45s20.187-45 45-45 45 20.187 45 45-20.187 45-45 45z" opacity="1" data-original="#ffd7aa" class=""></path><path fill="#ffc58f" d="M256 175.999v90c24.813 0 45-20.187 45-45s-20.187-45-45-45z" opacity="1" data-original="#ffc58f" class=""></path></g></svg>