<svg xmlns="http://www.w3.org/2000/svg" version="1.1" xmlns:xlink="http://www.w3.org/1999/xlink" width="512" height="512" x="0" y="0" viewBox="0 0 512 512" style="enable-background:new 0 0 512 512" xml:space="preserve"><g><path fill="#faf7fc" d="M174.807 15h-107.5c-22.091 0-40 17.909-40 40v228.774l147.5 20.001 10.001-133.968z" opacity="1" data-original="#faf7fc"></path><path fill="#e5e3ee" d="M322.307 283.774V55c0-22.091-17.909-40-40-40h-107.5v288.776z" opacity="1" data-original="#e5e3ee"></path><path fill="#514599" d="M67.307 497h107.5l10.001-112.583-10.001-100.642h-147.5V457c0 22.091 17.909 40 40 40z" opacity="1" data-original="#514599"></path><path fill="#453580" d="M174.807 497h107.5c22.091 0 40-17.909 40-40V283.774h-147.5z" opacity="1" data-original="#453580"></path><path fill="#7b90ff" d="M67.307 482c-13.785 0-25-11.215-25-25V55c0-13.785 11.215-25 25-25H92.22l5.43 24.264a15 15 0 0 0 14.638 11.724h62.52l10-35.988-10.001-30h-107.5c-30.327 0-55 24.673-55 55v402c0 30.327 24.673 55 55 55h107.5l10.001-15-10.001-15z" opacity="1" data-original="#7b90ff"></path><path fill="#6074ef" d="M282.307 0h-107.5v65.988h62.52a15.001 15.001 0 0 0 14.638-11.724L257.395 30h24.913c13.785 0 25 11.215 25 25v402c0 13.785-11.215 25-25 25h-107.5v30h107.5c30.327 0 55-24.673 55-55V55c-.001-30.327-24.673-55-55.001-55z" opacity="1" data-original="#6074ef"></path><path fill="#d6d9ef" d="M104.104 171.054c-11.158.117-18.613-12.28-13.23-22.07 5.423-10.488 21.033-10.49 26.45 0 5.389 9.78-2.067 22.182-13.22 22.07zM164.439 141.049c-8.284 0-15 6.716-15 15s6.716 15 15 15h10.368l10.001-14.465-10.001-15.535z" opacity="1" data-original="#d6d9ef"></path><path fill="#c3cbe5" d="M245.515 141.049h-70.708v30h70.708c8.284 0 15-6.716 15-15s-6.716-15-15-15z" opacity="1" data-original="#c3cbe5"></path><path fill="#faf7fc" d="M104.1 396.509c-8.284 0-15 6.716-15 15s6.716 15 15 15h70.707l10.001-15-10.001-15z" opacity="1" data-original="#faf7fc"></path><path fill="#efedf4" d="M245.515 396.509h-70.708v30h70.708c8.284 0 15-6.716 15-15s-6.716-15-15-15z" opacity="1" data-original="#efedf4"></path><path fill="#faf7fc" d="M104.1 336.325c-8.284 0-15 6.716-15 15s6.716 15 15 15h70.707l10.001-15-10.001-15z" opacity="1" data-original="#faf7fc"></path><path fill="#efedf4" d="M245.515 336.325h-70.708v30h70.708c8.284 0 15-6.716 15-15s-6.716-15-15-15z" opacity="1" data-original="#efedf4"></path><path fill="#d6d9ef" d="M104.1 201.201c-8.284 0-15 6.716-15 15s6.716 15 15 15h70.707l10.001-15-10.001-15z" opacity="1" data-original="#d6d9ef"></path><path fill="#c3cbe5" d="M245.515 201.201h-70.708v30h70.708c8.284 0 15-6.716 15-15s-6.716-15-15-15zM361.903 405.6c-28.667 0-51.988-23.321-51.988-51.988s23.321-51.988 51.988-51.988l10.001-45.484-10.001-44.158h-26.246a15 15 0 0 0-14.816 12.66l-1.929 12.215a124.818 124.818 0 0 0-36.594 21.158l-11.575-4.449a15.001 15.001 0 0 0-18.373 6.501l-26.246 45.46a15 15 0 0 0 3.556 19.162l9.622 7.784a125.32 125.32 0 0 0 0 42.28l-9.622 7.784a15 15 0 0 0-3.556 19.162l26.246 45.46a14.996 14.996 0 0 0 18.373 6.501l11.575-4.449a124.844 124.844 0 0 0 36.594 21.158l1.929 12.215a15 15 0 0 0 14.816 12.66h26.246l10.001-50.789z" opacity="1" data-original="#c3cbe5"></path><path fill="#b1bbdd" d="m494.126 382.536-9.622-7.784a125.33 125.33 0 0 0 0-42.28l9.622-7.784a15 15 0 0 0 3.556-19.162l-26.247-45.46a15 15 0 0 0-18.373-6.501l-11.575 4.449a124.844 124.844 0 0 0-36.594-21.158l-1.929-12.215a15 15 0 0 0-14.816-12.66h-26.246v89.643c28.667 0 51.988 23.321 51.988 51.988S390.569 405.6 361.902 405.6v89.643h26.246a15 15 0 0 0 14.816-12.66l1.929-12.215a124.818 124.818 0 0 0 36.594-21.158l11.575 4.449a15 15 0 0 0 18.373-6.501l26.247-45.46a14.999 14.999 0 0 0-3.556-19.162z" opacity="1" data-original="#b1bbdd"></path></g></svg>