<svg xmlns="http://www.w3.org/2000/svg" version="1.1" xmlns:xlink="http://www.w3.org/1999/xlink" width="512" height="512" x="0" y="0" viewBox="0 0 64 64" style="enable-background:new 0 0 512 512" xml:space="preserve" class=""><g><g fill="#ffb74d"><path d="m39.75 25.8-3.15 3.07.74 4.33a.983.983 0 0 1-.4.98.959.959 0 0 1-.58.19 1.116 1.116 0 0 1-.47-.11l-.04-.02L32 32.21l-.5.26-3.39 1.79a1.048 1.048 0 0 1-.96-.02l-.09-.06a.983.983 0 0 1-.4-.98l.74-4.33-3.15-3.07a1 1 0 0 1 .56-1.7l4.35-.63 1.94-3.95a.84.84 0 0 1 .4-.39 1.057 1.057 0 0 1 1.4.39l1.94 3.95 4.35.63a1 1 0 0 1 .56 1.7zM53.15 32.79l-2.35 2.29.56 3.24a1.017 1.017 0 0 1-.99 1.17.929.929 0 0 1-.46-.12l-.04-.02L47 37.84l-.5.26-2.41 1.27a.993.993 0 0 1-.96-.02l-.09-.06a.994.994 0 0 1-.4-.97l.56-3.24-2.35-2.29a.989.989 0 0 1-.25-1.02.969.969 0 0 1 .8-.68l3.25-.48 1.45-2.94a.84.84 0 0 1 .4-.39 1.057 1.057 0 0 1 1.4.39l1.45 2.94 3.25.48a.969.969 0 0 1 .8.68.989.989 0 0 1-.25 1.02zM23.15 32.79l-2.35 2.29.56 3.24a1 1 0 0 1-1.46 1.05l-.04-.02L17 37.84l-.5.26-2.4 1.27a.992.992 0 0 1-.96-.02.879.879 0 0 1-.1-.06.994.994 0 0 1-.4-.97l.56-3.24-2.35-2.29a.989.989 0 0 1-.25-1.02.969.969 0 0 1 .8-.68l3.25-.48 1.45-2.94a.84.84 0 0 1 .4-.39 1.057 1.057 0 0 1 1.4.39l1.45 2.94 3.25.48a.969.969 0 0 1 .8.68.989.989 0 0 1-.25 1.02zM62.7 39.94l-1.67 1.63.39 2.29a1 1 0 0 1-.39.98 1.01 1.01 0 0 1-.59.19 1.116 1.116 0 0 1-.47-.11l-.04-.02-2.02-1.07-.5.26-1.56.83a.992.992 0 0 1-.96-.02.879.879 0 0 1-.1-.06 1 1 0 0 1-.39-.98l.39-2.29-1.67-1.63a1 1 0 0 1 .56-1.7l2.3-.34 1.03-2.09a.84.84 0 0 1 .4-.39 1.054 1.054 0 0 1 1.4.39l1.03 2.09 2.3.34a1 1 0 0 1 .56 1.7zM10.88 39.94l-1.67 1.63.39 2.29a.983.983 0 0 1-.4.98.959.959 0 0 1-.58.19 1.116 1.116 0 0 1-.47-.11l-.04-.02-2.02-1.07-.5.26-1.56.83a.992.992 0 0 1-.96-.02.879.879 0 0 1-.1-.06 1 1 0 0 1-.39-.98l.39-2.29-1.67-1.63a1 1 0 0 1 .56-1.7l2.3-.34 1.03-2.09a.84.84 0 0 1 .4-.39 1.054 1.054 0 0 1 1.4.39l1.03 2.09 2.3.34a1 1 0 0 1 .56 1.7z" fill="#ffb74d" opacity="1" data-original="#ffb74d"></path></g><path fill="#ffcc80" d="m38.75 25.8-3.15 3.07.74 4.33a.983.983 0 0 1-.4.98l-.09.06L32 32.21l-.5.26-.5-.26-3.85 2.03-.09-.06a.983.983 0 0 1-.4-.98l.74-4.33-3.15-3.07a1 1 0 0 1 .56-1.7l4.35-.63 1.94-3.95a.84.84 0 0 1 .4-.39.84.84 0 0 1 .4.39l1.94 3.95 4.35.63a1 1 0 0 1 .56 1.7zM52.15 32.79l-2.35 2.29.56 3.24a.994.994 0 0 1-.4.97l-.09.06L47 37.84l-.5.26-.5-.26-2.87 1.51-.09-.06a.994.994 0 0 1-.4-.97l.56-3.24-2.35-2.29a.989.989 0 0 1-.25-1.02.969.969 0 0 1 .8-.68l3.25-.48 1.45-2.94a.84.84 0 0 1 .4-.39.84.84 0 0 1 .4.39l1.45 2.94 3.25.48a.969.969 0 0 1 .8.68.989.989 0 0 1-.25 1.02zM22.15 32.79l-2.35 2.29.56 3.24a.994.994 0 0 1-.4.97.879.879 0 0 1-.1.06L17 37.84l-.5.26-.5-.26-2.86 1.51a.879.879 0 0 1-.1-.06.994.994 0 0 1-.4-.97l.56-3.24-2.35-2.29a.989.989 0 0 1-.25-1.02.969.969 0 0 1 .8-.68l3.25-.48 1.45-2.94a.84.84 0 0 1 .4-.39.84.84 0 0 1 .4.39l1.45 2.94 3.25.48a.969.969 0 0 1 .8.68.989.989 0 0 1-.25 1.02zM61.7 39.94l-1.67 1.63.39 2.29a1 1 0 0 1-.39.98c-.03.02-.07.04-.1.06l-2.02-1.07-.5.26-.5-.26-2.02 1.07a.879.879 0 0 1-.1-.06 1 1 0 0 1-.39-.98l.39-2.29-1.67-1.63a1 1 0 0 1 .56-1.7l2.3-.34 1.03-2.09a.84.84 0 0 1 .4-.39.84.84 0 0 1 .4.39l1.03 2.09 2.3.34a1 1 0 0 1 .56 1.7zM9.88 39.94l-1.67 1.63.39 2.29a.983.983 0 0 1-.4.98l-.09.06-2.02-1.07-.5.26-.5-.26-2.02 1.07a.879.879 0 0 1-.1-.06 1 1 0 0 1-.39-.98l.39-2.29-1.67-1.63a1 1 0 0 1 .56-1.7l2.3-.34 1.03-2.09a.84.84 0 0 1 .4-.39.84.84 0 0 1 .4.39l1.03 2.09 2.3.34a1 1 0 0 1 .56 1.7z" opacity="1" data-original="#ffcc80" class=""></path></g></svg>