<svg xmlns="http://www.w3.org/2000/svg" version="1.1" xmlns:xlink="http://www.w3.org/1999/xlink" width="512" height="512" x="0" y="0" viewBox="0 0 52 52" style="enable-background:new 0 0 512 512" xml:space="preserve"><g><path fill="#678aee" d="m27.361 3.775-.037 9.14L9.15 23.045l-4.119-5.29s.673-2.992.807-3.025z" opacity="1" data-original="#678aee"></path><path fill="#3b3e3f" d="m18.058 14.367-1.98 1.162-3.86 2.226z" opacity="1" data-original="#3b3e3f"></path><path fill="#57b3fe" d="M10.227 13.69 7.7 15.152c-1.227.721-1.216 1.883.021 2.603.968.56 2.41.689 3.571.366.172-.032.334-.086.484-.161.15-.054.301-.13.441-.205l5.841-3.388 1.302-.753 3.183-1.84 9.325-5.396 3.077 1.775L15.294 19.53c-2.926 1.7-7.691 1.69-10.628 0-2.936-1.7-2.958-4.453-.032-6.152l5.583-3.238 2.356-1.365L24.274 2l3.077 1.775-4.83 2.794z" opacity="1" data-original="#57b3fe"></path><path fill="#ffd475" d="m28.257 8.47-8.9 5.148-1.302.75-5.84 3.383a2.498 2.498 0 0 1-.434.207 2.082 2.082 0 0 1-.493.167c-1.154.316-2.595.188-3.571-.374-1.125-.651-1.233-1.667-.326-2.388L23.75 5.865z" opacity="1" data-original="#ffd475"></path><path fill="#57b3fe" d="m31.868 6.378-9.325 5.397-3.183 1.84-1.302.752-5.84 3.388c-.14.076-.291.151-.442.205-.15.075-.312.129-.484.161-1.162.323-2.603.194-3.571-.366-.556-.324-.85-.737-.91-1.16-.444.068-.899.069-1.347.115a7.848 7.848 0 0 0-2.76.831c.327.728.976 1.419 1.962 1.99 2.937 1.688 7.702 1.699 10.628 0l19.65-11.378z" opacity="1" data-original="#57b3fe"></path><path fill="#497bfe" d="M15.294 19.53c-2.926 1.7-7.691 1.7-10.628 0-1.484-.85-2.216-1.979-2.216-3.098l-.017 6.714c-.06 3.341.414 6.214 4.35 6.665h2.43v7.937l.25 2.51L2.39 39.02l-.016 5.972c0 1.13.742 2.248 2.216 3.109 2.936 1.688 7.712 1.699 10.627 0l6.562-3.862 6.669-3.797 6.42-3.719.015-6.545c-6.426-2.195-5.847-8.866.035-15.309l.015-6.715z" opacity="1" data-original="#497bfe"></path><path fill="#f3f1fc" d="m34.928 14.868-.02 3.956-.01 8.335-.01 3.018-19.645 11.386c-2.93 1.696-7.704 1.687-10.643 0-1.47-.868-2.2-1.983-2.2-3.107l.03-15.31c0 1.115.74 2.25 2.229 3.088 2.93 1.696 7.694 1.696 10.614 0z" opacity="1" data-original="#f3f1fc"></path><path fill="#4c5c75" d="m37.251 19.426-.02 6.38-10 5.81-.96-.55.02-6.38 8.63-5.01v-1.6z" opacity="1" data-original="#4c5c75"></path><path fill="#111d33" d="m27.25 25.234-.018 6.382-.956-.55.018-6.383z" opacity="1" data-original="#111d33"></path><path fill="#1d2943" d="m37.25 19.427-.019 6.382-9.999 5.807.018-6.382z" opacity="1" data-original="#1d2943"></path><path fill="#4c5c75" d="m37.25 19.427-10 5.807-.956-.55 8.623-5.008v-1.604z" opacity="1" data-original="#4c5c75"></path><path fill="#ffffff" d="M30.164 25.103c.785-.453 1.434-.09 1.437.825.002.908-.643 2.026-1.428 2.48-.796.459-1.445.089-1.448-.82-.003-.914.643-2.026 1.439-2.485z" opacity="1" data-original="#ffffff"></path><path fill="#72d561" d="m49.621 36.286-.65.37.65.38v2.97c-15.711 9.067-1.662.958-17.31 9.99l-8.59-4.98-.01-2.97.65-.38-.64-.37-.01-2.96c9.16-5.29 14.881-8.592 17.32-10l8.59 4.99v2.96z" opacity="1" data-original="#72d561"></path><path fill="#5ec363" d="m23.715 42.05.009 2.962L32.307 50l-.009-2.963z" opacity="1" data-original="#5ec363"></path><path fill="#72d561" d="M32.298 47.037 32.307 50l17.318-9.999-.008-2.962z" opacity="1" data-original="#72d561"></path><path fill="#78e75a" d="m23.715 42.05 8.583 4.987 17.319-9.998-8.583-4.988z" opacity="1" data-original="#78e75a"></path><path fill="#72d561" d="M26.284 41.376c.643.373.64.976-.007 1.35l4.862 2.826c.647-.374 1.69-.373 2.33 0l13.576-7.839c-.64-.372-.637-.977.01-1.35l-4.863-2.826c-.646.373-1.69.374-2.332 0z" opacity="1" data-original="#72d561"></path><path fill="#5ec363" d="M29.84 41.806c-.815.471-.808 1.345.012 1.808.854.481 2.215.478 3.069-.009.814-.464.826-1.328.017-1.8-.852-.495-2.24-.495-3.098 0z" opacity="1" data-original="#5ec363"></path><path fill="#50b069" d="M35.48 37.478c-3.27.807-3.287 3.352-.034 4.154a5.78 5.78 0 0 0 2.744 0c3.264-.799 3.287-3.339.035-4.151a5.722 5.722 0 0 0-2.746-.003z" opacity="1" data-original="#50b069"></path><path fill="#5ec363" d="M38.868 37.144c3.458 1.038 3.436 3.798-.035 4.826a7.113 7.113 0 0 1-4.03-.002c-3.455-1.03-3.443-3.79.03-4.826a7.073 7.073 0 0 1 4.035.002zm.659 3.975c1.858-1.073 1.415-2.98-1.348-3.65a5.687 5.687 0 0 0-2.654-.002c-2.78.666-3.251 2.579-1.403 3.653 1.488.864 3.907.863 5.405-.001" opacity="1" data-original="#5ec363"></path><path fill="#78e75a" d="m38.362 35.577.226.131 1.329-.767-.226-.131zM37.131 35.733l.226.13 2.83-1.633-.225-.132z" opacity="1" data-original="#78e75a"></path><path fill="#5ec363" d="M40.74 35.513c-.814.47-.812 1.336.004 1.802.856.488 2.23.485 3.085-.008.808-.466.816-1.325.01-1.795-.852-.496-2.24-.496-3.1.001z" opacity="1" data-original="#5ec363"></path><path fill="#78e75a" d="m28.737 41.134.226.131 1.33-.767-.227-.131zM27.508 41.288l.226.132 2.83-1.635-.225-.131z" opacity="1" data-original="#78e75a"></path><path fill="#e93565" d="m39.16 43.076.009 2.962 3.594-2.075L42.755 41z" opacity="1" data-original="#e93565"></path><path fill="#f45170" d="m30.577 38.088 8.583 4.988L42.755 41l-8.583-4.987z" opacity="1" data-original="#f45170"></path><path fill="#febc1f" d="m42.171 44.306-2.41 1.39-.01-2.96-8.58-4.99 2.41-1.39 8.58 4.99z" opacity="1" data-original="#febc1f"></path><path fill="#febc1f" d="m39.752 42.734 2.41-1.392.009 2.963-2.41 1.392z" opacity="1" data-original="#febc1f"></path><path fill="#ffd06c" d="m31.17 37.746 2.41-1.392 8.582 4.988-2.41 1.392z" opacity="1" data-original="#ffd06c"></path><path fill="#5ec363" d="m23.715 38.335.009 2.963 8.583 4.988-.009-2.963z" opacity="1" data-original="#5ec363"></path><path fill="#72d561" d="m32.298 43.323.009 2.963 17.318-9.999-.008-2.962z" opacity="1" data-original="#72d561"></path><path fill="#78e75a" d="m23.715 38.335 8.583 4.988 17.319-9.998-8.583-4.988z" opacity="1" data-original="#78e75a"></path><path fill="#72d561" d="M26.284 37.662c.643.373.64.976-.007 1.35l4.862 2.825c.647-.373 1.69-.372 2.33 0L47.046 34c-.64-.372-.637-.977.01-1.35l-4.863-2.827c-.646.374-1.69.375-2.332.002z" opacity="1" data-original="#72d561"></path><path fill="#5ec363" d="M29.84 38.092c-.815.471-.808 1.345.012 1.808.854.481 2.215.478 3.069-.009.814-.464.826-1.328.017-1.8-.852-.495-2.24-.495-3.098 0z" opacity="1" data-original="#5ec363"></path><path fill="#50b069" d="M35.48 33.764c-3.27.807-3.287 3.352-.034 4.154.897.22 1.847.22 2.744 0 3.264-.799 3.287-3.339.035-4.151a5.722 5.722 0 0 0-2.746-.003z" opacity="1" data-original="#50b069"></path><path fill="#5ec363" d="M38.868 33.43c3.458 1.038 3.436 3.798-.035 4.826a7.114 7.114 0 0 1-4.03-.002c-3.455-1.03-3.443-3.79.03-4.826a7.072 7.072 0 0 1 4.035.002zm.659 3.974c1.858-1.072 1.415-2.978-1.348-3.649a5.687 5.687 0 0 0-2.654-.002c-2.78.666-3.251 2.578-1.403 3.653 1.488.864 3.907.863 5.405-.002" opacity="1" data-original="#5ec363"></path><path fill="#78e75a" d="m38.362 31.863.226.131 1.329-.767-.226-.131zM37.131 32.018l.226.132 2.83-1.635-.225-.13z" opacity="1" data-original="#78e75a"></path><path fill="#5ec363" d="M40.74 31.8c-.814.47-.812 1.335.004 1.8.856.49 2.23.486 3.085-.007.808-.466.816-1.325.01-1.795-.852-.496-2.24-.496-3.1.001z" opacity="1" data-original="#5ec363"></path><path fill="#78e75a" d="m28.737 37.42.226.13 1.33-.766-.227-.132zM27.508 37.574l.226.131 2.83-1.634-.225-.131z" opacity="1" data-original="#78e75a"></path><path fill="#e93565" d="m39.16 39.361.009 2.963 3.594-2.075-.008-2.963z" opacity="1" data-original="#e93565"></path><path fill="#f45170" d="m30.577 34.374 8.583 4.987 3.595-2.075-8.583-4.988z" opacity="1" data-original="#f45170"></path><path fill="#febc1f" d="m42.171 40.586-2.41 1.4-.01-2.97-8.58-4.98 2.41-1.4 8.58 4.99z" opacity="1" data-original="#febc1f"></path><path fill="#febc1f" d="m39.752 39.02 2.41-1.392.009 2.963-2.41 1.391z" opacity="1" data-original="#febc1f"></path><path fill="#ffd06c" d="m31.17 34.032 2.41-1.392 8.582 4.988-2.41 1.391z" opacity="1" data-original="#ffd06c"></path></g></svg>